<svg id="svg" version="1.1" xmlns="http://www.w3.org/2000/svg" xmlns:xlink="http://www.w3.org/1999/xlink" width="400" height="400" viewBox="0, 0, 400,400"><g id="svgg"><path id="path0" d="M0.000 71.000 L 0.000 83.200 23.600 83.200 L 47.200 83.200 47.200 94.600 L 47.200 106.000 59.400 106.000 L 71.600 106.000 71.600 94.600 L 71.600 83.200 106.400 83.200 L 141.200 83.200 141.200 94.600 L 141.200 106.000 153.200 106.000 L 165.200 106.000 165.200 94.600 L 165.200 83.200 200.000 83.200 L 234.800 83.200 234.800 94.600 L 234.800 106.000 246.800 106.000 L 258.800 106.000 258.800 94.600 L 258.800 83.200 293.600 83.200 L 328.400 83.200 328.400 94.600 L 328.400 106.000 340.600 106.000 L 352.800 106.000 352.800 94.600 L 352.800 83.200 376.400 83.200 L 400.000 83.200 400.000 71.000 L 400.000 58.800 200.000 58.800 L 0.000 58.800 0.000 71.000 M235.294 188.300 L 235.400 199.800 293.800 199.800 L 352.200 199.800 352.306 188.300 L 352.412 176.800 293.800 176.800 L 235.188 176.800 235.294 188.300 M235.200 235.201 L 235.200 246.803 293.700 246.701 L 352.200 246.600 352.306 235.100 L 352.412 223.600 293.806 223.600 L 235.200 223.600 235.200 235.201 M235.200 282.000 L 235.200 293.603 293.700 293.501 L 352.200 293.400 352.200 282.000 L 352.200 270.600 293.700 270.499 L 235.200 270.397 235.200 282.000 " stroke="none" fill="#495e66" fill-rule="evenodd"></path><path id="path1" d="M53.724 106.299 C 56.983 106.367,62.203 106.366,65.324 106.299 C 68.446 106.231,65.780 106.176,59.400 106.177 C 53.020 106.177,50.466 106.232,53.724 106.299 M147.324 106.299 C 150.583 106.367,155.803 106.366,158.924 106.299 C 162.046 106.231,159.380 106.176,153.000 106.177 C 146.620 106.177,144.066 106.232,147.324 106.299 M240.900 106.299 C 244.145 106.366,249.455 106.366,252.700 106.299 C 255.945 106.232,253.290 106.177,246.800 106.177 C 240.310 106.177,237.655 106.232,240.900 106.299 M334.924 106.299 C 338.183 106.367,343.403 106.366,346.524 106.299 C 349.646 106.231,346.980 106.176,340.600 106.177 C 334.220 106.177,331.666 106.232,334.924 106.299 M146.558 164.063 C 146.172 164.798,139.634 177.824,132.028 193.009 L 118.200 220.618 118.304 256.860 L 118.408 293.103 154.504 293.379 C 174.357 293.531,195.578 293.598,201.661 293.528 L 212.722 293.400 180.115 228.200 C 142.451 152.890,147.428 162.403,146.558 164.063 M264.731 176.700 C 280.864 176.758,307.144 176.758,323.131 176.700 C 339.119 176.642,325.920 176.595,293.800 176.595 C 261.680 176.595,248.599 176.642,264.731 176.700 " stroke="none" fill="#6cbe08" fill-rule="evenodd"></path><path id="path2" d="M0.000 223.639 L 0.000 341.200 100.000 341.200 L 200.000 341.200 200.000 317.600 L 200.000 294.000 163.300 293.942 C 143.115 293.910,108.568 293.775,86.528 293.642 L 46.456 293.400 73.311 239.700 C 88.081 210.165,100.265 186.000,100.387 186.000 C 100.508 186.000,104.384 193.560,109.000 202.800 C 113.616 212.040,117.574 219.595,117.796 219.588 C 118.018 219.581,124.593 206.758,132.406 191.092 C 140.676 174.512,146.861 162.564,147.206 162.502 C 147.628 162.427,155.254 177.318,173.597 214.034 C 187.785 242.435,199.530 265.757,199.697 265.860 C 199.864 265.963,200.000 230.062,200.000 186.081 L 200.000 106.114 100.000 106.097 L 0.000 106.079 0.000 223.639 " stroke="none" fill="#fbf363" fill-rule="evenodd"></path><path id="path3" d="M199.902 186.336 L 199.800 266.557 206.493 279.928 C 210.175 287.281,213.089 293.456,212.970 293.649 C 212.850 293.842,209.883 294.000,206.376 294.000 L 200.000 294.000 200.000 317.600 L 200.000 341.200 300.000 341.200 L 400.000 341.200 400.000 223.638 L 400.000 106.077 300.002 106.096 L 200.004 106.115 199.902 186.336 M352.306 188.300 L 352.200 200.200 293.600 200.200 L 235.000 200.200 234.894 188.805 C 234.835 182.538,234.874 177.183,234.981 176.905 C 235.136 176.501,246.950 176.400,293.793 176.400 L 352.412 176.400 352.306 188.300 M352.400 235.201 L 352.400 247.203 293.700 247.101 L 235.000 247.000 234.894 235.605 C 234.835 229.338,234.874 223.983,234.981 223.705 C 235.136 223.301,246.949 223.200,293.787 223.200 L 352.400 223.200 352.400 235.201 M352.400 282.001 L 352.400 294.003 293.700 293.901 L 235.000 293.800 234.894 282.405 C 234.835 276.138,234.874 270.783,234.981 270.505 C 235.136 270.101,246.949 270.000,293.787 270.000 L 352.400 270.000 352.400 282.001 " stroke="none" fill="#fcdc2c" fill-rule="evenodd"></path><path id="path4" d="M146.526 162.900 C 146.322 163.175,139.865 176.040,132.177 191.488 C 124.490 206.936,118.018 219.581,117.796 219.588 C 117.574 219.595,113.616 212.040,109.000 202.800 C 104.384 193.560,100.508 186.000,100.387 186.000 C 100.265 186.000,88.081 210.165,73.311 239.700 L 46.456 293.400 86.528 293.642 C 151.713 294.036,212.732 294.034,212.977 293.638 C 213.215 293.251,201.994 270.672,201.706 270.960 C 201.613 271.054,204.064 276.141,207.154 282.265 L 212.773 293.400 201.686 293.528 C 195.589 293.598,174.357 293.531,154.504 293.379 L 118.408 293.103 118.304 256.857 L 118.200 220.611 132.521 192.006 C 140.398 176.273,146.971 163.271,147.128 163.114 C 147.284 162.956,159.525 187.051,174.330 216.656 C 189.135 246.262,201.332 270.401,201.435 270.298 C 201.752 269.981,147.829 162.414,147.349 162.407 C 147.101 162.403,146.731 162.625,146.526 162.900 M234.981 176.905 C 234.874 177.183,234.835 182.538,234.894 188.805 L 235.000 200.200 293.379 200.301 C 325.487 200.357,351.893 200.267,352.059 200.101 C 352.224 199.936,325.994 199.846,293.768 199.903 L 235.177 200.005 235.288 188.202 C 235.350 181.711,235.349 176.400,235.287 176.400 C 235.226 176.400,235.088 176.627,234.981 176.905 M234.981 223.705 C 234.874 223.983,234.835 229.338,234.894 235.605 L 235.000 247.000 293.600 247.002 L 352.200 247.004 293.700 246.901 L 235.200 246.797 235.200 235.200 L 235.200 223.603 293.900 223.500 L 352.600 223.397 293.887 223.299 C 246.896 223.220,235.136 223.301,234.981 223.705 M234.981 270.505 C 234.874 270.783,234.835 276.138,234.894 282.405 L 235.000 293.800 293.600 293.802 L 352.200 293.804 293.700 293.701 L 235.200 293.597 235.200 282.000 L 235.200 270.403 293.900 270.300 L 352.600 270.197 293.887 270.099 C 246.896 270.020,235.136 270.101,234.981 270.505 " stroke="none" fill="#bcdc3c" fill-rule="evenodd"></path></g></svg>