<svg width="512" height="512" version="1.1" xmlns="http://www.w3.org/2000/svg" desc="Created with imagetracer.js version 1.2.6" ><path fill="rgb(73,58,75)" stroke="rgb(73,58,75)" stroke-width="1" opacity="0.996078431372549" d="M 474.5 16 L 436.5 55 L 474.5 16 Z " /><path fill="rgb(73,58,75)" stroke="rgb(73,58,75)" stroke-width="1" opacity="0.996078431372549" d="M 458.5 74 L 457.5 76 L 458.5 74 Z " /><path fill="rgb(241,56,81)" stroke="rgb(241,56,81)" stroke-width="1" opacity="0.08627450980392157" d="M 336.5 16 L 339 16.5 L 336.5 17 L 336.5 16 Z " /><path fill="rgb(241,56,81)" stroke="rgb(241,56,81)" stroke-width="1" opacity="0.08627450980392157" d="M 313.5 23 L 315 23.5 L 312.5 25 L 313.5 23 Z " /><path fill="rgb(241,56,81)" stroke="rgb(241,56,81)" stroke-width="1" opacity="0.08627450980392157" d="M 306.5 27 L 305.5 29 L 306.5 27 Z " /><path fill="rgb(241,56,81)" stroke="rgb(241,56,81)" stroke-width="1" opacity="0.08627450980392157" d="M 303.5 29 L 302.5 31 L 303.5 29 Z " /><path fill="rgb(241,56,81)" stroke="rgb(241,56,81)" stroke-width="1" opacity="0.08627450980392157" d="M 300.5 31 L 297.5 35 L 300.5 31 Z " /><path fill="rgb(241,56,81)" stroke="rgb(241,56,81)" stroke-width="1" opacity="0.08627450980392157" d="M 294.5 36 L 19.5 312 L 294.5 36 Z " /><path fill="rgb(241,56,81)" stroke="rgb(241,56,81)" stroke-width="1" opacity="0.08627450980392157" d="M 480.5 211 L 479.5 213 L 480.5 211 Z " /><path fill="rgb(241,56,81)" stroke="rgb(241,56,81)" stroke-width="1" opacity="0.08627450980392157" d="M 475.5 217 L 200.5 493 L 475.5 217 Z " /><path fill="rgb(241,56,81)" stroke="rgb(241,56,81)" stroke-width="1" opacity="0.08627450980392157" d="M 17.5 314 L 15.5 317 L 17.5 314 Z " /><path fill="rgb(241,56,81)" stroke="rgb(241,56,81)" stroke-width="1" opacity="0.08627450980392157" d="M 14.5 318 L 13.5 320 L 14.5 318 Z " /><path fill="rgb(241,56,81)" stroke="rgb(241,56,81)" stroke-width="1" opacity="0.08627450980392157" d="M 12.5 321 L 11.5 323 L 12.5 321 Z " /><path fill="rgb(241,56,81)" stroke="rgb(241,56,81)" stroke-width="1" opacity="0.08627450980392157" d="M 9.5 326 L 8.5 328 L 9.5 326 Z " /><path fill="rgb(241,56,81)" stroke="rgb(241,56,81)" stroke-width="1" opacity="0.08627450980392157" d="M 9.5 403 L 10.5 405 L 9.5 403 Z " /><path fill="rgb(241,56,81)" stroke="rgb(241,56,81)" stroke-width="1" opacity="0.08627450980392157" d="M 12.5 408 L 13.5 410 L 12.5 408 Z " /><path fill="rgb(241,56,81)" stroke="rgb(241,56,81)" stroke-width="1" opacity="0.08627450980392157" d="M 14.5 411 L 16.5 414 L 14.5 411 Z " /><path fill="rgb(241,56,81)" stroke="rgb(241,56,81)" stroke-width="1" opacity="0.08627450980392157" d="M 18.5 416 L 89.5 488 L 18.5 416 Z " /><path fill="rgb(241,56,81)" stroke="rgb(241,56,81)" stroke-width="1" opacity="0.08627450980392157" d="M 91.5 489 L 95.5 494 L 91.5 489 Z " /><path fill="rgb(241,56,81)" stroke="rgb(241,56,81)" stroke-width="1" opacity="0.08627450980392157" d="M 196.5 495 L 195.5 497 L 196.5 495 Z " /><path fill="rgb(0,0,0)" stroke="rgb(0,0,0)" stroke-width="1" opacity="0" d="M 0 0 L 492 0.5 L 488.5 2 L 474.5 16 L 336.5 16 L 323.5 19 L 306.5 27 L 294.5 36 L 19 311.5 Q 4.6 326.6 0.5 352 L 0 0 Z " /><path fill="rgb(0,0,0)" stroke="rgb(0,0,0)" stroke-width="1" opacity="0" d="M 502.5 0 L 512 0 L 512 9.5 L 511 9.5 L 505.5 2 Q 501.7 1.7 502.5 0 Z " /><path fill="rgb(0,0,0)" stroke="rgb(0,0,0)" stroke-width="1" opacity="0" d="M 511.5 20 L 512 512 L 160 511.5 Q 185.4 507.4 200.5 493 L 476 217.5 Q 491.2 201.7 496 175.5 L 496 37.5 L 510 23.5 L 511.5 20 Z " /><path fill="rgb(0,0,0)" stroke="rgb(0,0,0)" stroke-width="1" opacity="0" d="M 0.5 377 Q 4.2 401.8 18 416.5 L 95.5 494 Q 110.2 507.8 135 511.5 L 0 512 L 0.5 377 Z " /><path fill="rgb(254,56,56)" stroke="rgb(254,56,56)" stroke-width="1" opacity="0.996078431372549" d="M 341.5 16 L 474 16.5 L 436 54.5 Q 432.5 58.5 434 67.5 L 438 73.5 L 407.5 104 L 385.5 82 L 371.5 76 L 355.5 76 Q 340.9 79.4 333 89.5 L 325 105.5 L 324 118.5 L 326 127.5 L 332 138.5 L 353 159.5 L 349 162.5 Q 349.8 164.8 347.5 164 L 345 168 L 341 170.5 Q 341.8 172.8 339.5 172 L 337.5 173 Q 332.8 163.2 324.5 157 L 306.5 148 L 289.5 147 L 277.5 150 L 268.5 155 L 249 173.5 L 246 179.5 L 246 185.5 L 248 190.5 L 284 227.5 L 258.5 254 L 256.5 254 L 234 231.5 L 241 222.5 L 242 213.5 L 236.5 205 Q 232.7 200.8 223.5 202 L 217.5 205 L 186 236.5 Q 182.5 240.5 184 249.5 L 190.5 258 Q 194.2 261.3 202.5 260 L 213.5 253 L 236 276.5 L 196.5 316 L 195 314.5 L 180 276.5 L 173.5 267 L 163.5 264 Q 155.7 265.2 152 270.5 Q 148.3 274.8 150 284.5 L 157 299.5 L 155.5 300 L 140.5 293 L 132.5 293 L 124 298.5 L 121 304.5 L 121 310.5 Q 122.8 317.7 128.5 321 L 173 339.5 L 139.5 373 L 137.5 371 Q 133.2 367.3 123.5 369 L 112.5 377 L 101 364.5 L 115 349.5 Q 118.2 346.2 117 338.5 L 110.5 329 Q 106.5 326 98.5 327 L 92.5 330 L 67 355.5 L 64 365.5 L 67 373.5 L 103 409.5 L 57.5 455 L 18 415.5 Q 8.3 403.7 3 387.5 L 0 372.5 L 0 356.5 L 3 341.5 L 6 333.5 Q 11.3 320.8 20 311.5 L 295.5 36 Q 304.9 27.4 317.5 22 L 329.5 18 L 340.5 17 L 341.5 16 Z " /><path fill="rgb(254,56,56)" stroke="rgb(254,56,56)" stroke-width="1" opacity="0.996078431372549" d="M 359.5 106 L 368.5 107 L 386 124.5 L 373.5 138 L 356 120.5 L 354 113.5 L 359.5 106 Z " /><path fill="rgb(254,56,56)" stroke="rgb(254,56,56)" stroke-width="1" opacity="0.996078431372549" d="M 290.5 177 L 299.5 177 L 308 182.5 Q 312.2 186.8 312 195.5 Q 310.9 202.9 305.5 206 L 283 182.5 L 290.5 177 Z " /><path fill="rgb(228,241,251)" stroke="rgb(228,241,251)" stroke-width="1" opacity="1" d="M 355.5 76 L 371.5 76 L 385.5 82 L 444 139.5 Q 447 143.5 447 150.5 Q 445.8 158.8 439.5 162 Q 435.9 164.9 428.5 164 L 423.5 162 L 407.5 147 L 396 159.5 L 409 172.5 L 412 177.5 L 413 183.5 Q 411.5 192 405.5 196 Q 401.9 198.9 394.5 198 L 389.5 196 L 332 138.5 Q 323.5 129 324 110.5 Q 326.9 92.9 338.5 84 Q 345.1 78.1 355.5 76 Z M 360 106 L 354 114 L 356 121 L 374 138 L 386 125 L 369 107 L 360 106 Z " /><path fill="rgb(228,241,251)" stroke="rgb(228,241,251)" stroke-width="1" opacity="1" d="M 289.5 147 L 301.5 147 L 312.5 150 Q 325.1 155.4 333 165.5 L 341 181.5 L 342 185.5 L 342 202 L 367.5 202 L 377 209.5 L 379 217.5 Q 377.5 226 371.5 230 L 366.5 232 L 332 232.5 L 342 242.5 Q 345.5 246.5 344 255.5 L 337.5 264 Q 333.5 267 325.5 266 L 319.5 263 L 284 227.5 L 248 190.5 Q 245.1 186.9 246 179.5 L 249 173.5 L 264.5 158 L 277.5 150 L 289.5 147 Z M 291 177 L 283 183 L 306 206 Q 311 203 312 196 Q 312 187 308 183 L 300 177 L 291 177 Z " /><path fill="rgb(228,241,251)" stroke="rgb(228,241,251)" stroke-width="1" opacity="1" d="M 223.5 202 Q 235 201 239 207.5 Q 243 211 242 219.5 Q 239.8 227.3 234 231.5 L 293 289.5 L 296 295.5 L 296 302.5 Q 294.5 309 289.5 312 Q 285.5 315.5 276.5 314 L 272.5 312 L 212.5 253 Q 208.2 261.2 194.5 260 L 186 253.5 Q 182.5 249.5 184 240.5 L 186 236.5 L 217.5 205 L 223.5 202 Z " /><path fill="rgb(228,241,251)" stroke="rgb(228,241,251)" stroke-width="1" opacity="1" d="M 163.5 264 Q 173.1 264.4 177 270.5 L 194 312.5 L 197.5 317 L 238.5 333 L 246 339.5 Q 248.9 343.1 248 350.5 Q 246.5 357 241.5 360 Q 238 363.5 230.5 363 L 213 356 L 219 371.5 L 219 380.5 L 212.5 389 Q 208.5 392 200.5 391 L 193 387 L 186 372.5 L 173 339 L 130.5 322 L 123 315.5 Q 120.1 311.9 121 304.5 L 126.5 296 Q 130.7 291.7 140.5 293 L 156.5 300 L 156 298.5 L 150 284.5 L 150 274.5 L 155.5 267 L 163.5 264 Z " /><path fill="rgb(228,241,251)" stroke="rgb(228,241,251)" stroke-width="1" opacity="1" d="M 98.5 327 Q 110 326 114 332.5 Q 118.2 336.3 117 345.5 L 113 352.5 L 101 365.5 L 113.5 377 L 123.5 369 L 133.5 369 L 141 374.5 L 144 381.5 L 144 385.5 Q 141.7 394.2 135 398.5 L 147.5 411 L 160.5 398 Q 164.7 393.7 174.5 395 L 183 401.5 Q 186.5 405.5 185 414.5 L 183 418.5 L 155.5 446 Q 151.9 448.9 144.5 448 L 139.5 446 L 67 373.5 L 64 363.5 L 67 355.5 L 92.5 330 L 98.5 327 Z " /><path fill="rgb(223,27,76)" stroke="rgb(223,27,76)" stroke-width="1" opacity="0.41568627450980394" d="M 495.5 172 L 496 174.5 L 495 174.5 L 495.5 172 Z " /><path fill="rgb(223,27,76)" stroke="rgb(223,27,76)" stroke-width="1" opacity="0.41568627450980394" d="M 481.5 209 L 480.5 211 L 481.5 209 Z " /><path fill="rgb(223,27,76)" stroke="rgb(223,27,76)" stroke-width="1" opacity="0.41568627450980394" d="M 478.5 213 L 476.5 216 L 478.5 213 Z " /><path fill="rgb(223,27,76)" stroke="rgb(223,27,76)" stroke-width="1" opacity="0.41568627450980394" d="M 19.5 312 L 18.5 314 L 19.5 312 Z " /><path fill="rgb(223,27,76)" stroke="rgb(223,27,76)" stroke-width="1" opacity="0.41568627450980394" d="M 198.5 493 L 197.5 495 L 198.5 493 Z " /><path fill="rgb(223,27,76)" stroke="rgb(223,27,76)" stroke-width="1" opacity="0.41568627450980394" d="M 97.5 494 L 98.5 496 L 97.5 494 Z " /><path fill="rgb(223,27,76)" stroke="rgb(223,27,76)" stroke-width="1" opacity="0.41568627450980394" d="M 101.5 497 L 102.5 499 L 101.5 497 Z " /><path fill="rgb(223,27,76)" stroke="rgb(223,27,76)" stroke-width="1" opacity="0.41568627450980394" d="M 136.5 511 L 139 511.5 L 136.5 512 L 136.5 511 Z " /><path fill="rgb(223,27,76)" stroke="rgb(223,27,76)" stroke-width="1" opacity="0.41568627450980394" d="M 156.5 511 L 159 511.5 L 156.5 512 L 156.5 511 Z " /><path fill="rgb(15,68,93)" stroke="rgb(15,68,93)" stroke-width="1" opacity="0.996078431372549" d="M 492.5 0 L 501.5 0 L 510 6.5 Q 513.5 10.5 512 19.5 L 510 23.5 L 459.5 74 L 452.5 78 L 445.5 78 Q 439.8 76.8 437 72.5 L 434 65.5 L 434 60.5 L 436 55.5 L 488.5 2 L 492.5 0 Z " /><path fill="rgb(226,0,89)" stroke="rgb(226,0,89)" stroke-width="1" opacity="0.996078431372549" d="M 495.5 38 L 496 171.5 L 495 171.5 L 495.5 38 Z " /><path fill="rgb(226,0,89)" stroke="rgb(226,0,89)" stroke-width="1" opacity="0.996078431372549" d="M 484.5 204 L 483.5 206 L 484.5 204 Z " /><path fill="rgb(226,0,89)" stroke="rgb(226,0,89)" stroke-width="1" opacity="0.996078431372549" d="M 482.5 207 L 481.5 209 L 482.5 207 Z " /><path fill="rgb(226,0,89)" stroke="rgb(226,0,89)" stroke-width="1" opacity="0.996078431372549" d="M 479.5 211 L 478.5 213 L 479.5 211 Z " /><path fill="rgb(226,0,89)" stroke="rgb(226,0,89)" stroke-width="1" opacity="0.996078431372549" d="M 475.5 216 L 199.5 493 L 475.5 216 Z " /><path fill="rgb(226,0,89)" stroke="rgb(226,0,89)" stroke-width="1" opacity="0.996078431372549" d="M 58.5 455 L 96.5 494 L 58.5 455 Z " /><path fill="rgb(226,0,89)" stroke="rgb(226,0,89)" stroke-width="1" opacity="0.996078431372549" d="M 196.5 494 L 194.5 497 L 196.5 494 Z " /><path fill="rgb(226,0,89)" stroke="rgb(226,0,89)" stroke-width="1" opacity="0.996078431372549" d="M 99.5 495 L 100.5 497 L 99.5 495 Z " /><path fill="rgb(226,0,89)" stroke="rgb(226,0,89)" stroke-width="1" opacity="0.996078431372549" d="M 102.5 497 L 103.5 499 L 102.5 497 Z " /><path fill="rgb(226,0,89)" stroke="rgb(226,0,89)" stroke-width="1" opacity="0.996078431372549" d="M 192.5 497 L 191.5 499 L 192.5 497 Z " /><path fill="rgb(226,0,89)" stroke="rgb(226,0,89)" stroke-width="1" opacity="0.996078431372549" d="M 105.5 499 L 106.5 501 L 105.5 499 Z " /><path fill="rgb(226,0,89)" stroke="rgb(226,0,89)" stroke-width="1" opacity="0.996078431372549" d="M 189.5 499 L 188.5 501 L 189.5 499 Z " /><path fill="rgb(226,0,89)" stroke="rgb(226,0,89)" stroke-width="1" opacity="0.996078431372549" d="M 132.5 510 L 135 510.5 L 132.5 511 L 132.5 510 Z " /><path fill="rgb(226,0,89)" stroke="rgb(226,0,89)" stroke-width="1" opacity="0.996078431372549" d="M 160.5 510 L 163 510.5 L 160.5 511 L 160.5 510 Z " /><path fill="rgb(226,0,89)" stroke="rgb(226,0,89)" stroke-width="1" opacity="0.996078431372549" d="M 139.5 511 L 146 511.5 L 139.5 512 L 139.5 511 Z " /><path fill="rgb(226,0,89)" stroke="rgb(226,0,89)" stroke-width="1" opacity="0.996078431372549" d="M 149.5 511 L 156 511.5 L 149.5 512 L 149.5 511 Z " /><path fill="rgb(226,0,89)" stroke="rgb(226,0,89)" stroke-width="1" opacity="1" d="M 494.5 39 L 495 175.5 Q 490.8 198.8 478 213.5 L 197.5 494 L 177.5 506 L 159.5 511 Q 151.3 509.7 146.5 512 L 145.5 511 L 135.5 511 L 122.5 508 L 107.5 501 L 98.5 495 L 58 454.5 L 103.5 410 L 139.5 446 Q 143.1 448.9 150.5 448 L 155.5 446 L 183 418.5 Q 186.5 414.5 185 405.5 L 178.5 397 Q 174.8 393.7 166.5 395 L 160.5 398 L 147.5 411 L 135 398.5 L 141 392.5 L 144 385.5 L 144 381.5 L 140 372.5 L 172.5 340 L 174 341.5 L 186 372.5 L 193 387 L 200.5 391 L 207.5 391 Q 214 389.5 217 384.5 Q 220.5 380.5 219 371.5 L 213 356 L 224.5 361 L 234.5 363 Q 242.8 361.8 246 355.5 Q 248.9 351.9 248 344.5 Q 246.5 338 241.5 335 L 197 317 L 197 315.5 L 236.5 276 L 272.5 312 Q 276.5 315.5 285.5 314 L 294 307.5 Q 297 303.5 296 295.5 L 293 289.5 L 258 254.5 L 283.5 228 L 319.5 263 L 325.5 266 L 332.5 266 Q 339 264.5 342 259.5 Q 345.5 255.5 344 246.5 Q 340.2 237.3 332 232.5 L 366.5 232 Q 373 230.5 376 225.5 L 379 216.5 L 377 209.5 L 371.5 204 L 367.5 202 L 342 202 Q 344.1 184.1 338 173.5 L 341 172 L 343.5 168 Q 345.8 168.8 345 166.5 L 349 164 L 351.5 160 L 353.5 160 L 389.5 196 Q 393.1 198.9 400.5 198 Q 407 196.5 410 191.5 L 413 182.5 L 412 177.5 L 409 172.5 L 396 158.5 L 408.5 147 L 423.5 162 Q 427.1 164.9 434.5 164 Q 441 162.5 444 157.5 Q 447.3 154.3 447 147.5 L 444 139.5 L 408 103.5 L 438.5 74 Q 442.2 79.8 453.5 78 L 457.5 76 L 494.5 39 Z " /></svg>