<svg width="512" height="512" version="1.1" xmlns="http://www.w3.org/2000/svg" desc="Created with imagetracer.js version 1.2.6" ><path fill="rgb(229,225,228)" stroke="rgb(229,225,228)" stroke-width="1" opacity="0.996078431372549" d="M 436 7 L 498.5 7 L 509 12 L 512 18.5 L 512 442.5 L 506.5 451 L 500.5 454 L 361.5 454 L 361.5 453 Q 383 441.5 399 424.5 L 412 409.5 L 415 404 L 454.5 404 L 459 402 L 461 398.5 L 461 393.5 L 457.5 389 L 455.5 388 L 427 387.5 Q 434.7 377.4 439 365 L 453.5 365 L 461 359.5 Q 462.1 350.9 456.5 349 L 254 348.5 L 448 348 L 462 308.5 L 471 270.5 L 474 245.5 L 475 244.5 L 476 225.5 L 477 224.5 L 478 174.5 L 477 173.5 L 477 156.5 L 476 155.5 L 476 145.5 L 475 144.5 L 473 121.5 L 464 79.5 L 452 42.5 L 443 21.5 L 436 9.5 L 436 7 Z " /><path fill="rgb(229,225,228)" stroke="rgb(229,225,228)" stroke-width="1" opacity="0.996078431372549" d="M 395.5 85 L 399 85.5 L 395.5 86 L 395.5 85 Z " /><path fill="rgb(229,225,228)" stroke="rgb(229,225,228)" stroke-width="1" opacity="0.996078431372549" d="M 338.5 100 L 341 100.5 L 338.5 101 L 338.5 100 Z " /><path fill="rgb(229,225,228)" stroke="rgb(229,225,228)" stroke-width="1" opacity="0.996078431372549" d="M 350.5 100 L 355 100.5 L 350.5 101 L 350.5 100 Z " /><path fill="rgb(229,225,228)" stroke="rgb(229,225,228)" stroke-width="1" opacity="0.996078431372549" d="M 358.5 101 L 361 101.5 L 358.5 102 L 358.5 101 Z " /><path fill="rgb(229,225,228)" stroke="rgb(229,225,228)" stroke-width="1" opacity="0.996078431372549" d="M 329.5 103 L 328.5 105 L 329.5 103 Z " /><path fill="rgb(229,225,228)" stroke="rgb(229,225,228)" stroke-width="1" opacity="0.996078431372549" d="M 324.5 108 L 322.5 111 L 324.5 108 Z " /><path fill="rgb(229,225,228)" stroke="rgb(229,225,228)" stroke-width="1" opacity="0.996078431372549" d="M 309.5 116 L 308.5 118 L 309.5 116 Z " /><path fill="rgb(229,225,228)" stroke="rgb(229,225,228)" stroke-width="1" opacity="0.996078431372549" d="M 306.5 118 L 305.5 120 L 306.5 118 Z " /><path fill="rgb(229,225,228)" stroke="rgb(229,225,228)" stroke-width="1" opacity="0.996078431372549" d="M 303.5 120 L 301.5 123 L 303.5 120 Z " /><path fill="rgb(229,225,228)" stroke="rgb(229,225,228)" stroke-width="1" opacity="0.996078431372549" d="M 291.5 132 L 289.5 135 L 291.5 132 Z " /><path fill="rgb(229,225,228)" stroke="rgb(229,225,228)" stroke-width="1" opacity="0.996078431372549" d="M 426.5 132 L 428.5 135 L 426.5 132 Z " /><path fill="rgb(229,225,228)" stroke="rgb(229,225,228)" stroke-width="1" opacity="0.996078431372549" d="M 287.5 137 L 286.5 139 L 287.5 137 Z " /><path fill="rgb(229,225,228)" stroke="rgb(229,225,228)" stroke-width="1" opacity="0.996078431372549" d="M 435.5 141 L 437.5 144 L 435.5 141 Z " /><path fill="rgb(229,225,228)" stroke="rgb(229,225,228)" stroke-width="1" opacity="0.996078431372549" d="M 281.5 146 L 280.5 148 L 281.5 146 Z " /><path fill="rgb(229,225,228)" stroke="rgb(229,225,228)" stroke-width="1" opacity="0.996078431372549" d="M 267.5 181 L 268 183.5 L 267 183.5 L 267.5 181 Z " /><path fill="rgb(229,225,228)" stroke="rgb(229,225,228)" stroke-width="1" opacity="0.996078431372549" d="M 195.5 187 L 196 311.5 L 195 311.5 L 195.5 187 Z " /><path fill="rgb(229,225,228)" stroke="rgb(229,225,228)" stroke-width="1" opacity="0.996078431372549" d="M 447.5 187 L 448 193.5 L 447 193.5 L 447.5 187 Z " /><path fill="rgb(229,225,228)" stroke="rgb(229,225,228)" stroke-width="1" opacity="0.996078431372549" d="M 266.5 188 L 267 190.5 L 266 190.5 L 266.5 188 Z " /><path fill="rgb(229,225,228)" stroke="rgb(229,225,228)" stroke-width="1" opacity="0.996078431372549" d="M 265.5 197 L 266 219.5 L 265 219.5 L 265.5 197 Z " /><path fill="rgb(229,225,228)" stroke="rgb(229,225,228)" stroke-width="1" opacity="0.996078431372549" d="M 266.5 226 L 267 229.5 L 266 229.5 L 266.5 226 Z " /><path fill="rgb(229,225,228)" stroke="rgb(229,225,228)" stroke-width="1" opacity="0.996078431372549" d="M 268.5 239 L 269 241.5 L 268 241.5 L 268.5 239 Z " /><path fill="rgb(229,225,228)" stroke="rgb(229,225,228)" stroke-width="1" opacity="0.996078431372549" d="M 426.5 250 L 425.5 252 L 426.5 250 Z " /><path fill="rgb(229,225,228)" stroke="rgb(229,225,228)" stroke-width="1" opacity="0.996078431372549" d="M 421.5 256 L 411.5 267 L 421.5 256 Z " /><path fill="rgb(229,225,228)" stroke="rgb(229,225,228)" stroke-width="1" opacity="0.996078431372549" d="M 406.5 270 L 404.5 273 L 406.5 270 Z " /><path fill="rgb(229,225,228)" stroke="rgb(229,225,228)" stroke-width="1" opacity="0.996078431372549" d="M 393.5 280 L 392.5 282 L 393.5 280 Z " /><path fill="rgb(229,225,228)" stroke="rgb(229,225,228)" stroke-width="1" opacity="0.996078431372549" d="M 387.5 284 L 386.5 286 L 387.5 284 Z " /><path fill="rgb(229,225,228)" stroke="rgb(229,225,228)" stroke-width="1" opacity="0.996078431372549" d="M 289.5 289 L 291.5 292 L 289.5 289 Z " /><path fill="rgb(229,225,228)" stroke="rgb(229,225,228)" stroke-width="1" opacity="0.996078431372549" d="M 293.5 293 L 296.5 297 L 293.5 293 Z " /><path fill="rgb(229,225,228)" stroke="rgb(229,225,228)" stroke-width="1" opacity="0.996078431372549" d="M 319.5 306 L 322 306.5 L 319.5 307 L 319.5 306 Z " /><path fill="rgb(229,225,228)" stroke="rgb(229,225,228)" stroke-width="1" opacity="0.996078431372549" d="M 329.5 306 L 332 306.5 L 329.5 307 L 329.5 306 Z " /><path fill="rgb(229,225,228)" stroke="rgb(229,225,228)" stroke-width="1" opacity="0.996078431372549" d="M 247.5 361 L 249.5 364 L 247.5 361 Z " /><path fill="rgb(229,225,228)" stroke="rgb(229,225,228)" stroke-width="1" opacity="0.996078431372549" d="M 195.5 380 L 196 395.5 L 195 395.5 L 195.5 380 Z " /><path fill="rgb(229,225,228)" stroke="rgb(229,225,228)" stroke-width="1" opacity="0.996078431372549" d="M 336.5 389 L 337.5 391 L 336.5 389 Z " /><path fill="rgb(229,225,228)" stroke="rgb(229,225,228)" stroke-width="1" opacity="0.996078431372549" d="M 247.5 400 L 249.5 403 L 247.5 400 Z " /><path fill="rgb(229,225,228)" stroke="rgb(229,225,228)" stroke-width="1" opacity="0.996078431372549" d="M 369.5 400 L 371.5 403 L 369.5 400 Z " /><path fill="rgb(229,225,228)" stroke="rgb(229,225,228)" stroke-width="1" opacity="0.996078431372549" d="M 195.5 419 L 196 434.5 L 195 434.5 L 195.5 419 Z " /><path fill="rgb(229,225,228)" stroke="rgb(229,225,228)" stroke-width="1" opacity="0.996078431372549" d="M 195.5 439 L 196 441.5 L 195 441.5 L 195.5 439 Z " /><path fill="rgb(62,89,89)" stroke="rgb(62,89,89)" stroke-width="1" opacity="1" d="M 140.5 194 Q 148.1 192.9 150 197.5 L 151 203.5 L 145.5 211 L 140.5 212 L 135 207.5 L 134 202.5 L 138.5 195 L 140.5 194 Z " /><path fill="rgb(62,89,89)" stroke="rgb(62,89,89)" stroke-width="1" opacity="1" d="M 163.5 218 Q 169.6 217.2 172 219 L 174 222.5 L 174 227.5 L 168.5 235 Q 161.3 236.3 159 232.5 L 158 224.5 L 161.5 219 L 163.5 218 Z " /><path fill="rgb(62,89,89)" stroke="rgb(62,89,89)" stroke-width="1" opacity="1" d="M 252.5 349 L 454.5 349 L 459 351 L 461 357.5 L 457.5 363 L 455.5 364 L 251.5 364 L 248 361.5 L 247 353.5 L 252.5 349 Z " /><path fill="rgb(62,89,89)" stroke="rgb(62,89,89)" stroke-width="1" opacity="1" d="M 191.5 380 L 195 380.5 L 195 396 L 123.5 407 L 122.5 408 L 110.5 409 L 105 404.5 Q 103.8 397.3 107.5 395 L 112.5 393 L 118.5 393 L 191.5 380 Z " /><path fill="rgb(62,89,89)" stroke="rgb(62,89,89)" stroke-width="1" opacity="1" d="M 252.5 388 L 332.5 388 L 338 391.5 L 339 397.5 L 335.5 402 L 333.5 403 L 251.5 403 L 248 400.5 L 247 392.5 L 252.5 388 Z " /><path fill="rgb(62,89,89)" stroke="rgb(62,89,89)" stroke-width="1" opacity="1" d="M 374.5 388 L 454.5 388 L 459 390 L 461 396.5 L 457.5 402 L 455.5 403 L 373.5 403 L 369 399.5 L 368 394.5 L 370 390 L 374.5 388 Z " /><path fill="rgb(62,89,89)" stroke="rgb(62,89,89)" stroke-width="1" opacity="1" d="M 189.5 420 L 195 420 L 195 435 L 118.5 448 L 112 443.5 L 111 437.5 L 114.5 433 L 189.5 420 Z " /><path fill="rgb(0,0,0)" stroke="rgb(0,0,0)" stroke-width="1" opacity="0" d="M 0 0 L 511.5 0 L 512 0.5 L 512 16.5 L 511 16.5 L 506.5 10 L 500.5 7 L 206.5 7 L 198 12.5 L 195 18.5 L 195 33 L 192.5 34 L 187.5 34 L 114.5 47 L 108.5 47 L 23.5 62 L 17.5 62 L 9.5 64 L 3 68.5 L 0.5 73 L 0 0 Z " /><path fill="rgb(0,0,0)" stroke="rgb(0,0,0)" stroke-width="1" opacity="0" d="M 0.5 87 L 36 304.5 L 37 305.5 L 37 311.5 L 52 396.5 L 52 402.5 L 66 481.5 L 66 487.5 L 69 497.5 L 74.5 503 Q 78.9 506.1 87.5 505 L 88.5 504 L 100.5 503 L 106.5 501 L 112.5 501 L 179.5 489 L 185.5 489 L 264.5 475 L 270.5 475 L 355.5 460 L 367.5 459 L 376.5 454 L 501.5 454 L 510 447.5 L 511.5 444 L 512 512 L 0 512 L 0.5 87 Z " /><path fill="rgb(253,166,16)" stroke="rgb(253,166,16)" stroke-width="1" opacity="0.9882352941176471" d="M 194.5 33 L 195 186.5 L 193.5 186 L 162 170.5 L 161 151.5 L 160 150.5 L 160 141.5 L 159 140.5 L 159 131.5 L 158 130.5 L 156 107.5 L 155 106.5 L 151 75.5 L 144 42 L 163.5 38 L 188.5 35 L 194.5 33 Z " /><path fill="rgb(253,166,16)" stroke="rgb(253,166,16)" stroke-width="1" opacity="0.9882352941176471" d="M 166 309 L 180.5 312 L 193.5 312 L 195 313.5 L 195 379.5 L 191.5 380 L 163 385 L 164 382.5 L 164 365.5 L 165 364.5 L 166 309 Z " /><path fill="rgb(253,166,16)" stroke="rgb(253,166,16)" stroke-width="1" opacity="0.9882352941176471" d="M 189.5 396 Q 194.9 395.4 195 396.5 L 195 420 L 160 425 L 161 420.5 L 162 401 L 177.5 398 L 183.5 398 L 189.5 396 Z " /><path fill="rgb(253,166,16)" stroke="rgb(253,166,16)" stroke-width="1" opacity="0.9882352941176471" d="M 193.5 435 L 195 435.5 L 195 442.5 L 200.5 451 L 206.5 454 L 375 454.5 L 367.5 459 L 365.5 459 L 361.5 460 L 359.5 460 L 306.5 468 L 300.5 470 L 281.5 472 L 276.5 474 L 274.5 474 L 270.5 475 L 268.5 475 L 238.5 479 L 232.5 481 L 197.5 486 L 191.5 488 L 189.5 488 L 185.5 489 L 183.5 489 L 151 494 L 153 485.5 L 156 458.5 L 157 457.5 L 158 441 L 193.5 435 Z " /><path fill="rgb(104,209,163)" stroke="rgb(104,209,163)" stroke-width="1" opacity="1" d="M 394.5 86 Q 408.4 86.6 415 94.5 L 416 102.5 L 408 121 Q 423.8 128 435 140.5 L 442 150.5 L 444 156.5 L 444 161.5 L 443 165.5 L 437.5 171 Q 432.8 174.3 423.5 173 Q 413.6 169.9 408 162.5 L 401.5 152 L 400.5 153 L 386.5 153 Q 371 149.5 363 138.5 L 359.5 133 Q 352 135.5 340.5 134 Q 330.4 131.6 325 124.5 L 322 114.5 Q 322.9 107.9 327.5 105 Q 335.3 99.3 349.5 100 L 366.5 103 L 379.5 108 L 382 105.5 L 390.5 88 L 394.5 86 Z " /><path fill="rgb(104,209,163)" stroke="rgb(104,209,163)" stroke-width="1" opacity="1" d="M 81.5 132 L 110 146.5 L 106 154.5 L 102 171.5 L 102 196.5 Q 109.3 236.3 135.5 257 Q 148.4 267.6 165.5 274 L 181.5 278 L 195 279 L 195 312 L 182.5 312 L 162.5 308 Q 146.5 303.5 133.5 296 Q 112.1 283.9 97 265.5 Q 81.9 247.6 74 222.5 L 69 197.5 L 69 173.5 L 74 149.5 L 81.5 132 Z " /><path fill="rgb(104,209,163)" stroke="rgb(104,209,163)" stroke-width="1" opacity="1" d="M 455.5 349 L 458 350.5 L 456.5 350 L 455.5 349 Z " /><path fill="rgb(104,209,163)" stroke="rgb(104,209,163)" stroke-width="1" opacity="1" d="M 249.5 350 L 247.5 353 L 249.5 350 Z " /><path fill="rgb(104,209,163)" stroke="rgb(104,209,163)" stroke-width="1" opacity="1" d="M 246.5 354 L 247 358.5 L 246 358.5 L 246.5 354 Z " /><path fill="rgb(104,209,163)" stroke="rgb(104,209,163)" stroke-width="1" opacity="1" d="M 254.5 364 L 454 364.5 L 254.5 365 L 254.5 364 Z " /><path fill="rgb(104,209,163)" stroke="rgb(104,209,163)" stroke-width="1" opacity="1" d="M 249.5 389 L 247.5 392 L 249.5 389 Z " /><path fill="rgb(104,209,163)" stroke="rgb(104,209,163)" stroke-width="1" opacity="1" d="M 246.5 393 L 247 397.5 L 246 397.5 L 246.5 393 Z " /><path fill="rgb(104,209,163)" stroke="rgb(104,209,163)" stroke-width="1" opacity="1" d="M 337.5 400 L 336.5 402 L 337.5 400 Z " /><path fill="rgb(104,209,163)" stroke="rgb(104,209,163)" stroke-width="1" opacity="1" d="M 253.5 403 L 332 403.5 L 253.5 404 L 253.5 403 Z " /><path fill="rgb(104,209,163)" stroke="rgb(104,209,163)" stroke-width="1" opacity="1" d="M 375.5 403 L 455 403.5 L 375.5 404 L 375.5 403 Z " /><path fill="rgb(248,247,247)" stroke="rgb(248,247,247)" stroke-width="1" opacity="0.996078431372549" d="M 211.5 7 L 435.5 7 L 436 8.5 L 434.5 8 L 211.5 8 L 211.5 7 Z " /><path fill="rgb(248,247,247)" stroke="rgb(248,247,247)" stroke-width="1" opacity="0.996078431372549" d="M 201.5 10 L 200.5 12 L 201.5 10 Z " /><path fill="rgb(248,247,247)" stroke="rgb(248,247,247)" stroke-width="1" opacity="0.996078431372549" d="M 436.5 10 L 443 22.5 L 442 22.5 L 436.5 10 Z " /><path fill="rgb(248,247,247)" stroke="rgb(248,247,247)" stroke-width="1" opacity="0.996078431372549" d="M 390.5 87 L 388.5 90 L 390.5 87 Z " /><path fill="rgb(248,247,247)" stroke="rgb(248,247,247)" stroke-width="1" opacity="0.996078431372549" d="M 467.5 95 L 468 97.5 L 467 97.5 L 467.5 95 Z " /><path fill="rgb(248,247,247)" stroke="rgb(248,247,247)" stroke-width="1" opacity="0.996078431372549" d="M 327.5 104 L 324.5 108 L 327.5 104 Z " /><path fill="rgb(248,247,247)" stroke="rgb(248,247,247)" stroke-width="1" opacity="0.996078431372549" d="M 470.5 110 L 471 112.5 L 470 112.5 L 470.5 110 Z " /><path fill="rgb(248,247,247)" stroke="rgb(248,247,247)" stroke-width="1" opacity="0.996078431372549" d="M 471.5 116 L 472 118.5 L 471 118.5 L 471.5 116 Z " /><path fill="rgb(248,247,247)" stroke="rgb(248,247,247)" stroke-width="1" opacity="0.996078431372549" d="M 472.5 121 L 473 124.5 L 472 124.5 L 472.5 121 Z " /><path fill="rgb(248,247,247)" stroke="rgb(248,247,247)" stroke-width="1" opacity="0.996078431372549" d="M 298.5 124 L 292.5 131 L 298.5 124 Z " /><path fill="rgb(248,247,247)" stroke="rgb(248,247,247)" stroke-width="1" opacity="0.996078431372549" d="M 473.5 128 L 474 131.5 L 473 131.5 L 473.5 128 Z " /><path fill="rgb(248,247,247)" stroke="rgb(248,247,247)" stroke-width="1" opacity="0.996078431372549" d="M 474.5 136 L 475 139.5 L 474 139.5 L 474.5 136 Z " /><path fill="rgb(248,247,247)" stroke="rgb(248,247,247)" stroke-width="1" opacity="0.996078431372549" d="M 475.5 145 L 476 149.5 L 475 149.5 L 475.5 145 Z " /><path fill="rgb(248,247,247)" stroke="rgb(248,247,247)" stroke-width="1" opacity="0.996078431372549" d="M 476.5 156 L 477 163.5 L 476 163.5 L 476.5 156 Z " /><path fill="rgb(248,247,247)" stroke="rgb(248,247,247)" stroke-width="1" opacity="0.996078431372549" d="M 477.5 174 L 478 206.5 L 477 206.5 L 477.5 174 Z " /><path fill="rgb(248,247,247)" stroke="rgb(248,247,247)" stroke-width="1" opacity="0.996078431372549" d="M 476.5 217 L 477 224.5 L 476 224.5 L 476.5 217 Z " /><path fill="rgb(248,247,247)" stroke="rgb(248,247,247)" stroke-width="1" opacity="0.996078431372549" d="M 475.5 231 L 476 235.5 L 475 235.5 L 475.5 231 Z " /><path fill="rgb(248,247,247)" stroke="rgb(248,247,247)" stroke-width="1" opacity="0.996078431372549" d="M 474.5 240 L 475 244.5 L 474 244.5 L 474.5 240 Z " /><path fill="rgb(248,247,247)" stroke="rgb(248,247,247)" stroke-width="1" opacity="0.996078431372549" d="M 473.5 249 L 474 251.5 L 473 251.5 L 473.5 249 Z " /><path fill="rgb(248,247,247)" stroke="rgb(248,247,247)" stroke-width="1" opacity="0.996078431372549" d="M 472.5 256 L 473 258.5 L 472 258.5 L 472.5 256 Z " /><path fill="rgb(248,247,247)" stroke="rgb(248,247,247)" stroke-width="1" opacity="0.996078431372549" d="M 471.5 262 L 472 264.5 L 471 264.5 L 471.5 262 Z " /><path fill="rgb(248,247,247)" stroke="rgb(248,247,247)" stroke-width="1" opacity="0.996078431372549" d="M 470.5 268 L 471 270.5 L 470 270.5 L 470.5 268 Z " /><path fill="rgb(248,247,247)" stroke="rgb(248,247,247)" stroke-width="1" opacity="0.996078431372549" d="M 469.5 273 L 470 275.5 L 469 275.5 L 469.5 273 Z " /><path fill="rgb(248,247,247)" stroke="rgb(248,247,247)" stroke-width="1" opacity="0.996078431372549" d="M 468.5 278 L 469 280.5 L 468 280.5 L 468.5 278 Z " /><path fill="rgb(248,247,247)" stroke="rgb(248,247,247)" stroke-width="1" opacity="0.996078431372549" d="M 466.5 287 L 467 289.5 L 466 289.5 L 466.5 287 Z " /><path fill="rgb(248,247,247)" stroke="rgb(248,247,247)" stroke-width="1" opacity="0.996078431372549" d="M 248.5 350 L 247.5 352 L 248.5 350 Z " /><path fill="rgb(248,247,247)" stroke="rgb(248,247,247)" stroke-width="1" opacity="0.996078431372549" d="M 433.5 376 L 432.5 378 L 433.5 376 Z " /><path fill="rgb(248,247,247)" stroke="rgb(248,247,247)" stroke-width="1" opacity="0.996078431372549" d="M 430.5 381 L 430 382.5 L 428.5 385 L 429 383.5 L 430.5 381 Z " /><path fill="rgb(248,247,247)" stroke="rgb(248,247,247)" stroke-width="1" opacity="0.996078431372549" d="M 427.5 386 L 426.5 388 L 427.5 386 Z " /><path fill="rgb(248,247,247)" stroke="rgb(248,247,247)" stroke-width="1" opacity="0.996078431372549" d="M 248.5 389 L 247.5 391 L 248.5 389 Z " /><path fill="rgb(248,247,247)" stroke="rgb(248,247,247)" stroke-width="1" opacity="0.996078431372549" d="M 370.5 389 L 369.5 391 L 370.5 389 Z " /><path fill="rgb(248,247,247)" stroke="rgb(248,247,247)" stroke-width="1" opacity="0.996078431372549" d="M 414.5 405 L 412.5 408 L 414.5 405 Z " /><path fill="rgb(248,247,247)" stroke="rgb(248,247,247)" stroke-width="1" opacity="0.996078431372549" d="M 411.5 409 L 408.5 413 L 411.5 409 Z " /><path fill="rgb(248,247,247)" stroke="rgb(248,247,247)" stroke-width="1" opacity="0.996078431372549" d="M 407.5 414 L 401.5 421 L 407.5 414 Z " /><path fill="rgb(248,247,247)" stroke="rgb(248,247,247)" stroke-width="1" opacity="0.996078431372549" d="M 398.5 424 L 395.5 428 L 398.5 424 Z " /><path fill="rgb(248,247,247)" stroke="rgb(248,247,247)" stroke-width="1" opacity="0.996078431372549" d="M 390.5 431 L 385.5 437 L 390.5 431 Z " /><path fill="rgb(248,247,247)" stroke="rgb(248,247,247)" stroke-width="1" opacity="0.996078431372549" d="M 382.5 438 L 380.5 441 L 382.5 438 Z " /><path fill="rgb(248,247,247)" stroke="rgb(248,247,247)" stroke-width="1" opacity="0.996078431372549" d="M 378.5 441 L 376.5 444 L 378.5 441 Z " /><path fill="rgb(248,247,247)" stroke="rgb(248,247,247)" stroke-width="1" opacity="0.996078431372549" d="M 374.5 444 L 373.5 446 L 374.5 444 Z " /><path fill="rgb(248,247,247)" stroke="rgb(248,247,247)" stroke-width="1" opacity="0.996078431372549" d="M 371.5 446 L 370.5 448 L 371.5 446 Z " /><path fill="rgb(248,247,247)" stroke="rgb(248,247,247)" stroke-width="1" opacity="0.996078431372549" d="M 509.5 447 L 508.5 449 L 509.5 447 Z " /><path fill="rgb(248,247,247)" stroke="rgb(248,247,247)" stroke-width="1" opacity="0.996078431372549" d="M 368.5 448 L 367.5 450 L 368.5 448 Z " /><path fill="rgb(248,247,247)" stroke="rgb(248,247,247)" stroke-width="1" opacity="0.996078431372549" d="M 363.5 451 L 362.5 453 L 360.5 454 L 361.5 452 L 363.5 451 Z " /><path fill="rgb(234,76,98)" stroke="rgb(234,76,98)" stroke-width="1" opacity="1" d="M 320.5 111 Q 323.8 109.9 323 112.5 L 322 117.5 Q 323.9 125.2 329.5 129 L 340.5 134 L 355.5 134 L 359.5 133 L 370.5 146 Q 376.9 151.1 386.5 153 L 400.5 153 L 402 152.5 Q 405.5 161.5 412.5 167 L 423.5 173 L 432.5 173 Q 439.3 171.3 442.5 166 L 447 180.5 L 447 201.5 Q 443.1 224.6 433 241.5 Q 422.4 257.9 407.5 270 Q 389.1 286.1 365.5 297 L 337.5 306 L 322.5 307 L 308.5 304 L 292 293 Q 279 277.9 272 255.5 L 266 225.5 L 266 191.5 L 270 171.5 L 280 148.5 Q 288.3 133.8 300.5 123 L 320.5 111 Z M 319 164 L 317 165 L 313 170 L 314 177 L 318 179 L 326 178 Q 329 176 328 169 L 324 164 L 319 164 Z M 353 188 L 351 189 L 347 194 Q 346 201 352 203 L 360 202 Q 363 200 362 193 L 358 188 L 353 188 Z M 394 200 L 392 201 L 389 205 L 390 213 Q 392 216 400 215 L 404 210 L 403 204 Q 402 199 394 200 Z M 308 205 L 306 206 L 302 212 L 303 217 L 310 221 L 314 220 Q 319 218 317 210 L 313 205 L 308 205 Z M 370 232 L 368 233 L 364 238 Q 363 245 369 247 L 377 246 L 379 243 L 378 235 Q 376 231 370 232 Z M 325 245 L 323 246 Q 319 248 320 256 Q 322 262 331 260 L 335 255 L 334 249 Q 333 243 325 245 Z " /><path fill="rgb(234,76,98)" stroke="rgb(234,76,98)" stroke-width="1" opacity="1" d="M 110.5 146 L 195 187.5 L 195 278.5 Q 194.8 279.8 188.5 279 L 165.5 274 L 148.5 266 Q 134.2 257.8 124 245.5 Q 111.3 231.2 105 210.5 L 102 196.5 L 102 171.5 L 106 154.5 L 110.5 146 Z M 141 194 L 139 195 L 134 203 L 135 208 L 141 212 L 146 211 L 151 204 L 150 198 Q 148 193 141 194 Z M 164 218 L 162 219 L 158 225 L 159 233 Q 161 236 169 235 L 174 228 L 174 223 L 172 219 Q 170 217 164 218 Z " /><path fill="rgb(249,247,248)" stroke="rgb(249,247,248)" stroke-width="1" opacity="1" d="M 206.5 7 L 209.5 8 L 211.5 8 L 434.5 8 L 436 9.5 L 454 49.5 L 463 77.5 L 470 107.5 L 473 131.5 L 474 132.5 L 474 139.5 L 475 140.5 L 476 163.5 L 477 164.5 L 477 216.5 L 476 217.5 L 476 230.5 L 475 231.5 L 473 255.5 L 466 291.5 L 455 328.5 L 446.5 348 L 253.5 348 L 247 351.5 L 246 359.5 L 249.5 364 L 251.5 365 L 439 365.5 L 425.5 388 L 372.5 388 L 369 390.5 L 368 399.5 L 373.5 404 L 415 404.5 L 391.5 431 Q 377.3 444.3 359.5 454 L 208.5 454 Q 201.6 452.4 198 447.5 L 196 443.5 L 195 436.5 L 196 435.5 L 196 419.5 L 195 418.5 L 195 396.5 L 196 395.5 L 196 380.5 L 195 379.5 L 195 312.5 L 196 311.5 L 196 187.5 L 195 186.5 L 195 34.5 L 195 32.5 L 195 22.5 L 196 21.5 L 196 17.5 L 196 15 Q 199 16.3 198 12.5 Q 200 8.8 202 10.5 Q 201.3 8.3 203.5 9 L 206.5 7 Z M 396 85 L 391 87 L 388 90 L 380 107 L 373 104 L 356 100 L 338 100 L 328 104 L 324 109 L 308 117 L 299 124 Q 284 138 275 157 L 268 177 L 266 188 L 266 196 L 265 197 Q 263 256 288 289 Q 298 303 320 307 L 333 307 L 344 305 L 369 296 Q 392 285 411 268 Q 424 256 434 241 L 445 214 L 447 204 L 447 196 L 448 195 L 447 179 L 443 167 L 444 164 L 444 156 L 438 144 Q 426 129 409 121 Q 411 111 416 105 Q 418 96 414 93 L 403 86 L 396 85 Z M 251 388 L 249 389 L 246 393 L 247 401 L 252 404 L 334 404 L 336 403 L 340 397 L 339 392 L 336 388 L 251 388 Z " /><path fill="rgb(254,193,68)" stroke="rgb(254,193,68)" stroke-width="1" opacity="0.9921568627450981" d="M 139.5 42 Q 145.8 39.8 144 45.5 L 146 50.5 L 154 93.5 L 158 130.5 L 159 131.5 L 162 171 L 81.5 132 L 76 143.5 L 70 166.5 Q 71.5 172 69 173.5 L 69 197.5 L 74 222.5 L 82 242.5 Q 94.4 266.6 114.5 283 Q 128.2 294.3 145.5 302 L 162.5 308 L 166 308 L 165 364.5 L 164 365.5 L 164 382.5 L 163 385 L 118.5 393 L 112.5 393 L 106 396.5 L 105 404.5 Q 106.9 410.1 115.5 409 L 162 401 L 161 420.5 L 158.5 426 L 117.5 432 L 112 435.5 L 111 441.5 L 115.5 447 L 119.5 448 L 158 441 L 157 457.5 L 156 458.5 L 153 485.5 L 151 494 L 87.5 505 L 79.5 505 Q 72.3 503.2 69 497.5 L 67 492.5 L 64 469.5 L 54 414.5 L 54 408.5 L 40 329.5 L 40 323.5 L 26 244.5 L 26 238.5 L 12 159.5 L 12 153.5 L 0 86.5 L 0 73.5 L 5.5 66 L 17.5 62 L 23.5 62 L 139.5 42 Z " /><path fill="rgb(254,193,68)" stroke="rgb(254,193,68)" stroke-width="1" opacity="0.9921568627450981" d="M 318.5 164 L 323.5 164 L 328 168.5 Q 329.3 175.8 325.5 178 L 317.5 179 L 314 176.5 L 313 169.5 L 316.5 165 L 318.5 164 Z " /><path fill="rgb(254,193,68)" stroke="rgb(254,193,68)" stroke-width="1" opacity="0.9921568627450981" d="M 352.5 188 L 357.5 188 L 362 192.5 Q 363.3 199.8 359.5 202 L 351.5 203 Q 346.1 201.4 347 193.5 L 350.5 189 L 352.5 188 Z " /><path fill="rgb(254,193,68)" stroke="rgb(254,193,68)" stroke-width="1" opacity="0.9921568627450981" d="M 393.5 200 Q 401.5 198.5 403 203.5 L 404 209.5 L 399.5 215 Q 392.3 216.3 390 212.5 L 389 204.5 L 391.5 201 L 393.5 200 Z " /><path fill="rgb(254,193,68)" stroke="rgb(254,193,68)" stroke-width="1" opacity="0.9921568627450981" d="M 307.5 205 L 312.5 205 L 317 209.5 Q 318.8 218.3 313.5 220 L 309.5 221 L 303 216.5 L 302 211.5 L 305.5 206 L 307.5 205 Z " /><path fill="rgb(254,193,68)" stroke="rgb(254,193,68)" stroke-width="1" opacity="0.9921568627450981" d="M 369.5 232 Q 376 231 378 234.5 L 379 242.5 L 376.5 246 L 368.5 247 Q 363.1 245.4 364 237.5 L 367.5 233 L 369.5 232 Z " /><path fill="rgb(254,193,68)" stroke="rgb(254,193,68)" stroke-width="1" opacity="0.9921568627450981" d="M 324.5 245 Q 332.5 243.5 334 248.5 L 335 254.5 L 330.5 260 Q 321.5 261.5 320 255.5 Q 318.8 248.3 322.5 246 L 324.5 245 Z " /><path fill="rgb(254,193,68)" stroke="rgb(254,193,68)" stroke-width="1" opacity="0.9921568627450981" d="M 198.5 448 L 200.5 451 L 198.5 448 Z " /><path fill="rgb(254,193,68)" stroke="rgb(254,193,68)" stroke-width="1" opacity="0.9921568627450981" d="M 375.5 454 L 374.5 456 L 375.5 454 Z " /></svg>