<svg width="512" height="512" version="1.1" xmlns="http://www.w3.org/2000/svg" desc="Created with imagetracer.js version 1.2.6" ><path fill="rgb(175,210,238)" stroke="rgb(175,210,238)" stroke-width="1" opacity="0.996078431372549" d="M 287.5 0 L 506.5 0 L 511 3.5 L 512 5.5 L 512 166.5 L 510 165.5 L 437.5 77 L 429.5 76 L 424 80.5 L 386.5 127 L 367.5 104 L 360.5 102 L 353 107.5 L 284.5 192 L 282 188.5 L 282 6.5 L 285 1 L 287.5 0 Z M 332 35 L 322 40 L 317 52 Q 317 58 320 63 Q 324 69 332 71 Q 340 72 345 69 L 353 59 Q 355 48 351 44 Q 347 34 332 35 Z " /><path fill="rgb(175,210,238)" stroke="rgb(175,210,238)" stroke-width="1" opacity="0.996078431372549" d="M 68.5 26 L 179 26.5 L 68.5 27 L 68.5 26 Z " /><path fill="rgb(175,210,238)" stroke="rgb(175,210,238)" stroke-width="1" opacity="0.996078431372549" d="M 185.5 34 L 186 54.5 L 185 54.5 L 185.5 34 Z " /><path fill="rgb(175,210,238)" stroke="rgb(175,210,238)" stroke-width="1" opacity="0.996078431372549" d="M 61.5 36 L 62 52.5 L 61 52.5 L 61.5 36 Z " /><path fill="rgb(175,210,238)" stroke="rgb(175,210,238)" stroke-width="1" opacity="0.996078431372549" d="M 79.5 44 L 80 54.5 L 79 54.5 L 79.5 44 Z " /><path fill="rgb(175,210,238)" stroke="rgb(175,210,238)" stroke-width="1" opacity="0.996078431372549" d="M 114.5 44 L 115 133 L 103 132.5 L 114 132 L 114.5 44 Z " /><path fill="rgb(175,210,238)" stroke="rgb(175,210,238)" stroke-width="1" opacity="0.996078431372549" d="M 132.5 44 L 133 132 L 144 132.5 L 133.5 133 L 132 131.5 L 132.5 44 Z " /><path fill="rgb(175,210,238)" stroke="rgb(175,210,238)" stroke-width="1" opacity="0.996078431372549" d="M 167.5 44 L 168 53.5 L 167 53.5 L 167.5 44 Z " /><path fill="rgb(175,210,238)" stroke="rgb(175,210,238)" stroke-width="1" opacity="0.996078431372549" d="M 63.5 58 L 64.5 60 L 63.5 58 Z " /><path fill="rgb(175,210,238)" stroke="rgb(175,210,238)" stroke-width="1" opacity="0.996078431372549" d="M 77.5 58 L 75.5 61 L 77.5 58 Z " /><path fill="rgb(175,210,238)" stroke="rgb(175,210,238)" stroke-width="1" opacity="0.996078431372549" d="M 169.5 58 L 170.5 60 L 169.5 58 Z " /><path fill="rgb(175,210,238)" stroke="rgb(175,210,238)" stroke-width="1" opacity="0.996078431372549" d="M 183.5 58 L 181.5 61 L 183.5 58 Z " /><path fill="rgb(175,210,238)" stroke="rgb(175,210,238)" stroke-width="1" opacity="0.996078431372549" d="M 71.5 61 L 74 61.5 L 71.5 62 L 71.5 61 Z " /><path fill="rgb(175,210,238)" stroke="rgb(175,210,238)" stroke-width="1" opacity="0.996078431372549" d="M 173.5 61 L 176 61.5 L 173.5 62 L 173.5 61 Z " /><path fill="rgb(175,210,238)" stroke="rgb(175,210,238)" stroke-width="1" opacity="0.996078431372549" d="M 177.5 61 L 180 61.5 L 177.5 62 L 177.5 61 Z " /><path fill="rgb(175,210,238)" stroke="rgb(175,210,238)" stroke-width="1" opacity="0.996078431372549" d="M 101.5 133 L 98.5 137 L 101.5 133 Z " /><path fill="rgb(175,210,238)" stroke="rgb(175,210,238)" stroke-width="1" opacity="0.996078431372549" d="M 148.5 136 L 150 138.5 L 149 138.5 L 148.5 136 Z " /><path fill="rgb(175,210,238)" stroke="rgb(175,210,238)" stroke-width="1" opacity="0.996078431372549" d="M 148.5 146 L 146.5 149 L 148.5 146 Z " /><path fill="rgb(175,210,238)" stroke="rgb(175,210,238)" stroke-width="1" opacity="0.996078431372549" d="M 217.5 178 L 218.5 180 L 217.5 178 Z " /><path fill="rgb(175,210,238)" stroke="rgb(175,210,238)" stroke-width="1" opacity="0.996078431372549" d="M 35.5 220 L 97 220.5 L 35.5 221 L 35.5 220 Z " /><path fill="rgb(175,210,238)" stroke="rgb(175,210,238)" stroke-width="1" opacity="0.996078431372549" d="M 133.5 220 L 159 220.5 L 133.5 221 L 133.5 220 Z " /><path fill="rgb(175,210,238)" stroke="rgb(175,210,238)" stroke-width="1" opacity="0.996078431372549" d="M 123.5 228 L 124 230.5 L 123 230.5 L 123.5 228 Z " /><path fill="rgb(175,210,238)" stroke="rgb(175,210,238)" stroke-width="1" opacity="0.996078431372549" d="M 35.5 238 L 97 238.5 L 35.5 239 L 35.5 238 Z " /><path fill="rgb(175,210,238)" stroke="rgb(175,210,238)" stroke-width="1" opacity="0.996078431372549" d="M 132.5 238 L 159 238.5 L 132.5 239 L 132.5 238 Z " /><path fill="rgb(175,210,238)" stroke="rgb(175,210,238)" stroke-width="1" opacity="0.996078431372549" d="M 318.5 264 L 476 264.5 L 318.5 265 L 318.5 264 Z " /><path fill="rgb(175,210,238)" stroke="rgb(175,210,238)" stroke-width="1" opacity="0.996078431372549" d="M 218.5 279 L 217.5 281 L 218.5 279 Z " /><path fill="rgb(175,210,238)" stroke="rgb(175,210,238)" stroke-width="1" opacity="0.996078431372549" d="M 483.5 279 L 482.5 281 L 483.5 279 Z " /><path fill="rgb(175,210,238)" stroke="rgb(175,210,238)" stroke-width="1" opacity="0.996078431372549" d="M 28.5 323 L 29.5 325 L 28.5 323 Z " /><path fill="rgb(175,210,238)" stroke="rgb(175,210,238)" stroke-width="1" opacity="0.996078431372549" d="M 381.5 323 L 382.5 325 L 381.5 323 Z " /><path fill="rgb(175,210,238)" stroke="rgb(175,210,238)" stroke-width="1" opacity="0.996078431372549" d="M 429.5 381 L 430.5 383 L 429.5 381 Z " /><path fill="rgb(175,210,238)" stroke="rgb(175,210,238)" stroke-width="1" opacity="0.996078431372549" d="M 361.5 384 L 357.5 389 L 361.5 384 Z " /><path fill="rgb(175,210,238)" stroke="rgb(175,210,238)" stroke-width="1" opacity="0.996078431372549" d="M 29.5 390 L 28.5 392 L 29.5 390 Z " /><path fill="rgb(175,210,238)" stroke="rgb(175,210,238)" stroke-width="1" opacity="0.996078431372549" d="M 391.5 399 L 390.5 401 L 391.5 399 Z " /><path fill="rgb(175,210,238)" stroke="rgb(175,210,238)" stroke-width="1" opacity="0.996078431372549" d="M 388.5 404 L 389 413.5 L 388 413.5 L 388.5 404 Z " /><path fill="rgb(175,210,238)" stroke="rgb(175,210,238)" stroke-width="1" opacity="0.996078431372549" d="M 374.5 416 L 372.5 419 L 374.5 416 Z " /><path fill="rgb(175,210,238)" stroke="rgb(175,210,238)" stroke-width="1" opacity="0.996078431372549" d="M 421.5 429 L 420.5 431 L 421.5 429 Z " /><path fill="rgb(175,210,238)" stroke="rgb(175,210,238)" stroke-width="1" opacity="0.996078431372549" d="M 378.5 432 L 387.5 432 L 389 433.5 L 388.5 443 L 388 433 L 378.5 433 L 378.5 432 Z " /><path fill="rgb(175,210,238)" stroke="rgb(175,210,238)" stroke-width="1" opacity="0.996078431372549" d="M 406.5 432 L 416 432.5 L 406.5 433 L 406.5 432 Z " /><path fill="rgb(175,210,238)" stroke="rgb(175,210,238)" stroke-width="1" opacity="0.996078431372549" d="M 164.5 434 L 165.5 436 L 164.5 434 Z " /><path fill="rgb(175,210,238)" stroke="rgb(175,210,238)" stroke-width="1" opacity="0.996078431372549" d="M 404.5 446 L 402.5 449 L 404.5 446 Z " /><path fill="rgb(175,210,238)" stroke="rgb(175,210,238)" stroke-width="1" opacity="0.996078431372549" d="M 436.5 459 L 433.5 463 L 436.5 459 Z " /><path fill="rgb(175,210,238)" stroke="rgb(175,210,238)" stroke-width="1" opacity="0.996078431372549" d="M 401.5 476 L 404 476.5 L 401.5 477 L 401.5 476 Z " /><path fill="rgb(48,103,94)" stroke="rgb(48,103,94)" stroke-width="1" opacity="1" d="M 431.5 76 Q 439.6 76.4 442 82.5 L 512 168.5 L 512 184.5 L 508.5 192 L 504.5 194 L 442.5 194 L 388 128.5 L 388 125.5 L 428.5 77 L 431.5 76 Z " /><path fill="rgb(48,103,94)" stroke="rgb(48,103,94)" stroke-width="1" opacity="1" d="M 32.5 177 L 214.5 177 L 219 180.5 L 220 188.5 L 216.5 193 L 213.5 194 L 33.5 194 L 28 190.5 L 27 182.5 L 30.5 178 L 32.5 177 Z " /><path fill="rgb(48,103,94)" stroke="rgb(48,103,94)" stroke-width="1" opacity="1" d="M 32.5 221 L 99.5 221 L 105 225.5 L 106 230.5 L 101.5 237 L 99.5 238 L 32.5 238 L 28 234.5 L 27 226.5 L 30.5 222 L 32.5 221 Z " /><path fill="rgb(48,103,94)" stroke="rgb(48,103,94)" stroke-width="1" opacity="1" d="M 129.5 221 L 161.5 221 L 166 224.5 L 167 232.5 L 163.5 237 L 161.5 238 L 129.5 238 L 125 234.5 L 124 226.5 L 127.5 222 L 129.5 221 Z " /><path fill="rgb(48,103,94)" stroke="rgb(48,103,94)" stroke-width="1" opacity="1" d="M 33.5 265 L 213.5 265 L 219 268.5 L 220 277.5 L 214.5 282 L 32.5 282 L 28 278.5 L 27 270.5 L 29.5 267 L 33.5 265 Z " /><path fill="rgb(48,103,94)" stroke="rgb(48,103,94)" stroke-width="1" opacity="1" d="M 315.5 265 L 478.5 265 L 484 268.5 L 485 276.5 L 481.5 281 L 479.5 282 L 314.5 282 L 311 280 Q 308.4 277.7 309 271.5 L 313.5 266 L 315.5 265 Z " /><path fill="rgb(48,103,94)" stroke="rgb(48,103,94)" stroke-width="1" opacity="1" d="M 33.5 309 L 116.5 309 L 121 311 L 123 314.5 L 123 320.5 L 119.5 325 L 117.5 326 L 32.5 326 L 28 322.5 L 27 314.5 L 29 311 L 33.5 309 Z " /><path fill="rgb(48,103,94)" stroke="rgb(48,103,94)" stroke-width="1" opacity="1" d="M 316.5 309 L 354.5 309 L 361 313.5 L 362 319.5 L 358.5 325 L 356.5 326 L 314.5 326 L 311 323.5 Q 308.3 321.2 309 315.5 L 313.5 310 L 316.5 309 Z " /><path fill="rgb(48,103,94)" stroke="rgb(48,103,94)" stroke-width="1" opacity="1" d="M 386.5 309 L 416.5 309 L 422 312.5 L 423 321.5 L 418.5 326 L 385.5 326 L 381 322.5 L 380 314.5 L 382 311 L 386.5 309 Z " /><path fill="rgb(48,103,94)" stroke="rgb(48,103,94)" stroke-width="1" opacity="1" d="M 32.5 389 L 215.5 389 L 220 393.5 Q 221.5 401.5 217.5 404 L 213.5 406 L 33.5 406 L 29 404 L 27 400.5 L 27 394.5 L 30.5 390 L 32.5 389 Z " /><path fill="rgb(48,103,94)" stroke="rgb(48,103,94)" stroke-width="1" opacity="1" d="M 32.5 433 L 82.5 433 L 87 436.5 L 88 443.5 L 83.5 449 L 81.5 450 L 33.5 450 L 28 446.5 L 27 438.5 L 30.5 434 L 32.5 433 Z " /><path fill="rgb(48,103,94)" stroke="rgb(48,103,94)" stroke-width="1" opacity="1" d="M 111.5 433 L 161.5 433 L 167 437.5 Q 168.5 446.5 163.5 449 L 161.5 450 L 112.5 450 L 107 445.5 L 106 439.5 L 111.5 433 Z " /><path fill="rgb(224,231,234)" stroke="rgb(224,231,234)" stroke-width="1" opacity="0.9764705882352941" d="M 64.5 28 L 63.5 30 L 64.5 28 Z " /><path fill="rgb(224,231,234)" stroke="rgb(224,231,234)" stroke-width="1" opacity="0.9764705882352941" d="M 80.5 44 L 114 44.5 L 80.5 45 L 80.5 44 Z " /><path fill="rgb(224,231,234)" stroke="rgb(224,231,234)" stroke-width="1" opacity="0.9764705882352941" d="M 133.5 44 L 167 44.5 L 133.5 45 L 133.5 44 Z " /><path fill="rgb(224,231,234)" stroke="rgb(224,231,234)" stroke-width="1" opacity="0.9764705882352941" d="M 147.5 134 L 148.5 136 L 147.5 134 Z " /><path fill="rgb(224,231,234)" stroke="rgb(224,231,234)" stroke-width="1" opacity="0.9764705882352941" d="M 106.5 150 L 141 150.5 L 106.5 151 L 106.5 150 Z " /><path fill="rgb(224,231,234)" stroke="rgb(224,231,234)" stroke-width="1" opacity="0.9764705882352941" d="M 126.5 222 L 125.5 224 L 126.5 222 Z " /><path fill="rgb(224,231,234)" stroke="rgb(224,231,234)" stroke-width="1" opacity="0.9764705882352941" d="M 29.5 266 L 28.5 268 L 29.5 266 Z " /><path fill="rgb(224,231,234)" stroke="rgb(224,231,234)" stroke-width="1" opacity="0.9764705882352941" d="M 35.5 308 L 115 308.5 L 35.5 309 L 35.5 308 Z " /><path fill="rgb(224,231,234)" stroke="rgb(224,231,234)" stroke-width="1" opacity="0.9764705882352941" d="M 120.5 310 L 121.5 312 L 120.5 310 Z " /><path fill="rgb(224,231,234)" stroke="rgb(224,231,234)" stroke-width="1" opacity="0.9764705882352941" d="M 402.5 399 L 403.5 401 L 402.5 399 Z " /><path fill="rgb(224,231,234)" stroke="rgb(224,231,234)" stroke-width="1" opacity="0.9764705882352941" d="M 28.5 403 L 29.5 405 L 28.5 403 Z " /><path fill="rgb(224,231,234)" stroke="rgb(224,231,234)" stroke-width="1" opacity="0.9764705882352941" d="M 35.5 406 L 212 406.5 L 35.5 407 L 35.5 406 Z " /><path fill="rgb(224,231,234)" stroke="rgb(224,231,234)" stroke-width="1" opacity="0.9764705882352941" d="M 420.5 417 L 421.5 419 L 420.5 417 Z " /><path fill="rgb(224,231,234)" stroke="rgb(224,231,234)" stroke-width="1" opacity="0.9764705882352941" d="M 373.5 429 L 374.5 431 L 373.5 429 Z " /><path fill="rgb(224,231,234)" stroke="rgb(224,231,234)" stroke-width="1" opacity="0.9764705882352941" d="M 85.5 434 L 86.5 436 L 85.5 434 Z " /><path fill="rgb(224,231,234)" stroke="rgb(224,231,234)" stroke-width="1" opacity="0.9764705882352941" d="M 390.5 446 L 391.5 448 L 390.5 446 Z " /><path fill="rgb(236,240,241)" stroke="rgb(236,240,241)" stroke-width="1" opacity="0.9921568627450981" d="M 4.5 0 L 9 0.5 Q 2.6 0.6 1 5.5 L 0.5 9 L 0 4.5 L 4.5 0 Z " /><path fill="rgb(236,240,241)" stroke="rgb(236,240,241)" stroke-width="1" opacity="0.9921568627450981" d="M 238.5 0 L 242.5 0 L 247 4.5 L 248 7.5 L 248 504.5 L 243.5 511 L 238.5 512 L 238.5 511 L 241.5 511 L 246 506.5 L 247 504.5 L 247 7.5 L 241.5 1 Q 237.5 1.8 238.5 0 Z " /><path fill="rgb(236,240,241)" stroke="rgb(236,240,241)" stroke-width="1" opacity="0.9921568627450981" d="M 0.5 503 Q 0.6 509.4 5.5 511 L 9 511.5 L 4.5 512 L 0 507.5 L 0.5 503 Z " /><path fill="rgb(236,240,241)" stroke="rgb(236,240,241)" stroke-width="1" opacity="1" d="M 9.5 0 L 237.5 0 L 241.5 1 L 246 5.5 L 247 7.5 L 247 504.5 L 241.5 511 L 237.5 512 L 9.5 512 L 5.5 511 L 1 506.5 L 0 502.5 L 0 9.5 L 1 5.5 L 5.5 1 L 9.5 0 Z M 69 26 L 65 28 L 61 35 L 61 54 L 63 59 L 68 62 L 76 61 Q 82 57 80 45 L 114 45 L 114 132 L 104 132 L 97 138 L 98 147 L 101 149 L 107 151 L 141 151 L 147 149 L 150 145 L 149 136 Q 144 130 133 132 L 133 45 L 167 45 L 168 58 L 174 62 L 182 61 L 186 55 L 186 34 L 184 30 L 179 26 L 69 26 Z M 34 176 L 31 177 L 26 183 Q 25 189 28 192 L 35 195 L 214 195 L 218 193 L 221 189 L 220 181 L 215 176 L 34 176 Z M 34 220 L 30 222 L 26 228 L 27 235 L 34 239 L 99 239 L 102 238 Q 108 236 106 226 L 99 220 L 34 220 Z M 131 220 L 127 222 L 123 228 Q 122 233 125 236 L 131 239 L 161 239 L 164 238 L 168 233 L 167 225 L 161 220 L 131 220 Z M 35 264 L 30 266 L 26 272 L 27 279 L 34 283 L 215 283 L 217 282 L 221 277 L 220 269 L 213 264 L 35 264 Z M 36 308 L 28 311 L 26 316 L 27 323 L 33 327 L 118 327 L 120 326 L 124 321 Q 125 314 122 312 L 115 308 L 36 308 Z M 33 388 L 31 389 L 26 395 Q 25 401 28 404 L 36 407 L 212 407 L 218 405 L 221 401 L 220 393 L 215 388 L 33 388 Z M 34 432 L 31 433 L 26 439 Q 25 445 28 448 L 35 451 L 81 451 L 84 450 L 89 443 L 87 436 L 82 432 L 34 432 Z M 113 432 L 108 434 L 105 442 L 106 446 L 114 451 L 161 451 L 165 449 L 168 445 L 167 437 L 162 432 L 113 432 Z " /><path fill="rgb(236,240,241)" stroke="rgb(236,240,241)" stroke-width="1" opacity="1" d="M 394.5 398 Q 403.5 396.5 405 402.5 L 406 415 Q 418.8 412.9 423 420.5 Q 424.3 428.8 419.5 431 L 417.5 432 L 406 432 Q 408.3 444.5 401.5 449 L 395.5 450 L 389 444.5 L 389 432 L 377.5 432 L 372 427.5 L 371 422.5 L 375.5 416 L 389 415 L 389 403.5 L 392.5 399 L 394.5 398 Z " /><path fill="rgb(0,0,0)" stroke="rgb(0,0,0)" stroke-width="1" opacity="0" d="M 0 0 L 4 0.5 L 0 3.5 L 0 0 Z " /><path fill="rgb(0,0,0)" stroke="rgb(0,0,0)" stroke-width="1" opacity="0" d="M 243.5 0 L 287 0.5 L 283 3.5 L 282 6.5 L 282 188.5 L 285.5 193 L 289.5 195 L 504.5 195 L 511.5 190 L 512 233.5 L 511 233.5 L 509.5 231 L 505.5 229 L 288.5 229 L 283 233.5 L 282 235.5 L 282 505.5 L 285.5 511 L 287 511.5 L 243.5 512 L 247 507.5 L 248 504.5 L 248 7.5 L 243.5 0 Z " /><path fill="rgb(0,0,0)" stroke="rgb(0,0,0)" stroke-width="1" opacity="0" d="M 508.5 0 Q 513.8 -1.8 512 3.5 L 508.5 0 Z " /><path fill="rgb(0,0,0)" stroke="rgb(0,0,0)" stroke-width="1" opacity="0" d="M 0.5 508 L 3.5 512 Q -2.4 513.6 0.5 508 Z " /><path fill="rgb(0,0,0)" stroke="rgb(0,0,0)" stroke-width="1" opacity="0" d="M 511.5 508 L 512 512 L 508 511.5 L 511.5 508 Z " /><path fill="rgb(223,196,78)" stroke="rgb(223,196,78)" stroke-width="1" opacity="0.996078431372549" d="M 333.5 35 Q 345.6 34.9 350 42.5 Q 354.5 47 353 57.5 L 346.5 67 Q 342.2 71.2 333.5 71 Q 325 69.5 321 63.5 Q 316.5 59 318 48.5 Q 320.3 41.8 325.5 38 L 333.5 35 Z " /><path fill="rgb(208,211,209)" stroke="rgb(208,211,209)" stroke-width="1" opacity="0.9921568627450981" d="M 317.5 51 L 318 54.5 L 317 54.5 L 317.5 51 Z " /><path fill="rgb(208,211,209)" stroke="rgb(208,211,209)" stroke-width="1" opacity="0.9921568627450981" d="M 345.5 67 L 344.5 69 L 345.5 67 Z " /><path fill="rgb(208,211,209)" stroke="rgb(208,211,209)" stroke-width="1" opacity="0.9921568627450981" d="M 29.5 178 L 28.5 180 L 29.5 178 Z " /><path fill="rgb(208,211,209)" stroke="rgb(208,211,209)" stroke-width="1" opacity="0.9921568627450981" d="M 218.5 191 L 217.5 193 L 218.5 191 Z " /><path fill="rgb(208,211,209)" stroke="rgb(208,211,209)" stroke-width="1" opacity="0.9921568627450981" d="M 34.5 194 L 213 194.5 L 34.5 195 L 34.5 194 Z " /><path fill="rgb(208,211,209)" stroke="rgb(208,211,209)" stroke-width="1" opacity="0.9921568627450981" d="M 29.5 222 L 28.5 224 L 29.5 222 Z " /><path fill="rgb(208,211,209)" stroke="rgb(208,211,209)" stroke-width="1" opacity="0.9921568627450981" d="M 288.5 229 L 505.5 229 L 511 232.5 L 512 235.5 L 512 506.5 L 508.5 511 L 506.5 512 L 287.5 512 L 282 505.5 L 282 236.5 L 286.5 230 L 288.5 229 Z M 319 264 L 313 266 L 309 271 L 310 279 L 317 283 L 479 283 L 483 281 L 486 276 L 485 270 L 481 265 L 476 264 L 319 264 Z M 315 309 L 313 310 Q 307 312 309 322 L 316 327 L 356 327 L 358 326 L 362 321 L 362 315 L 360 311 L 357 309 L 315 309 Z M 386 309 L 384 310 L 379 317 L 381 324 L 387 327 L 417 327 L 420 326 L 424 321 L 423 314 L 419 309 L 386 309 Z M 388 371 Q 372 375 362 384 Q 348 396 344 418 L 344 431 L 346 440 L 355 457 Q 367 473 392 477 Q 420 478 434 463 Q 446 452 450 434 L 450 415 L 448 407 L 439 391 Q 430 379 415 373 L 407 371 L 388 371 Z " /><path fill="rgb(208,211,209)" stroke="rgb(208,211,209)" stroke-width="1" opacity="0.9921568627450981" d="M 28.5 235 L 29.5 237 L 28.5 235 Z " /><path fill="rgb(208,211,209)" stroke="rgb(208,211,209)" stroke-width="1" opacity="0.9921568627450981" d="M 125.5 235 L 126.5 237 L 125.5 235 Z " /><path fill="rgb(208,211,209)" stroke="rgb(208,211,209)" stroke-width="1" opacity="0.9921568627450981" d="M 35.5 264 L 212 264.5 L 35.5 265 L 35.5 264 Z " /><path fill="rgb(208,211,209)" stroke="rgb(208,211,209)" stroke-width="1" opacity="0.9921568627450981" d="M 217.5 266 L 218.5 268 L 217.5 266 Z " /><path fill="rgb(208,211,209)" stroke="rgb(208,211,209)" stroke-width="1" opacity="0.9921568627450981" d="M 28.5 279 L 29.5 281 L 28.5 279 Z " /><path fill="rgb(208,211,209)" stroke="rgb(208,211,209)" stroke-width="1" opacity="0.9921568627450981" d="M 396.5 397 L 399 397.5 L 396.5 398 L 396.5 397 Z " /><path fill="rgb(208,211,209)" stroke="rgb(208,211,209)" stroke-width="1" opacity="0.9921568627450981" d="M 29.5 434 L 28.5 436 L 29.5 434 Z " /><path fill="rgb(208,211,209)" stroke="rgb(208,211,209)" stroke-width="1" opacity="0.9921568627450981" d="M 88.5 440 L 89 442.5 L 88 442.5 L 88.5 440 Z " /><path fill="rgb(208,211,209)" stroke="rgb(208,211,209)" stroke-width="1" opacity="0.9921568627450981" d="M 166.5 446 L 164.5 449 L 166.5 446 Z " /><path fill="rgb(208,211,209)" stroke="rgb(208,211,209)" stroke-width="1" opacity="0.9921568627450981" d="M 34.5 450 L 80 450.5 L 34.5 451 L 34.5 450 Z " /><path fill="rgb(208,211,209)" stroke="rgb(208,211,209)" stroke-width="1" opacity="0.9921568627450981" d="M 114.5 450 L 160 450.5 L 114.5 451 L 114.5 450 Z " /><path fill="rgb(78,176,137)" stroke="rgb(78,176,137)" stroke-width="1" opacity="0.9921568627450981" d="M 67.5 27 L 179.5 27 L 184 30.5 L 185 32.5 L 185 55.5 L 180.5 61 L 176.5 62 L 172.5 61 L 169 57.5 L 168 55.5 L 168 44 L 132 44 L 132 131.5 L 133.5 133 L 144.5 133 L 148 135.5 Q 150.7 137.8 150 143.5 L 145.5 149 L 143.5 150 L 104.5 150 L 98 145.5 L 97 140.5 L 102.5 133 L 114.5 133 L 115 132.5 L 115 44 L 79.5 44 L 79 44.5 L 79 55.5 L 74.5 61 L 70.5 62 L 66.5 61 L 63 57.5 L 62 55.5 L 62 32.5 L 65.5 28 L 67.5 27 Z " /><path fill="rgb(78,176,137)" stroke="rgb(78,176,137)" stroke-width="1" opacity="0.9921568627450981" d="M 427.5 77 L 424.5 81 L 427.5 77 Z " /><path fill="rgb(78,176,137)" stroke="rgb(78,176,137)" stroke-width="1" opacity="0.9921568627450981" d="M 437.5 77 L 441.5 82 L 437.5 77 Z " /><path fill="rgb(78,176,137)" stroke="rgb(78,176,137)" stroke-width="1" opacity="0.9921568627450981" d="M 423.5 82 L 420 86.5 L 415.5 92 L 419 87.5 L 423.5 82 Z " /><path fill="rgb(78,176,137)" stroke="rgb(78,176,137)" stroke-width="1" opacity="0.9921568627450981" d="M 442.5 83 L 451 92.5 L 446 88.5 L 442.5 83 Z " /><path fill="rgb(78,176,137)" stroke="rgb(78,176,137)" stroke-width="1" opacity="0.9921568627450981" d="M 414.5 93 L 411 97.5 L 406.5 103 L 410 98.5 L 414.5 93 Z " /><path fill="rgb(78,176,137)" stroke="rgb(78,176,137)" stroke-width="1" opacity="0.9921568627450981" d="M 451.5 94 L 460 103.5 L 455 99.5 L 451.5 94 Z " /><path fill="rgb(78,176,137)" stroke="rgb(78,176,137)" stroke-width="1" opacity="0.9921568627450981" d="M 360.5 102 L 363.5 102 L 370 106.5 L 386.5 127 L 388 126.5 L 388 128.5 L 392 133.5 L 442.5 194 L 504.5 194 L 510 190.5 L 511.5 185 L 512 189.5 L 504.5 195 L 290.5 195 L 285 193 L 285 190.5 L 357.5 103 L 360.5 102 Z " /><path fill="rgb(78,176,137)" stroke="rgb(78,176,137)" stroke-width="1" opacity="0.9921568627450981" d="M 405.5 104 L 401.5 109 L 405.5 104 Z " /><path fill="rgb(78,176,137)" stroke="rgb(78,176,137)" stroke-width="1" opacity="0.9921568627450981" d="M 460.5 105 L 469 114.5 L 464 110.5 L 460.5 105 Z " /><path fill="rgb(78,176,137)" stroke="rgb(78,176,137)" stroke-width="1" opacity="0.9921568627450981" d="M 400.5 110 L 397.5 114 L 400.5 110 Z " /><path fill="rgb(78,176,137)" stroke="rgb(78,176,137)" stroke-width="1" opacity="0.9921568627450981" d="M 396.5 115 L 392.5 120 L 396.5 115 Z " /><path fill="rgb(78,176,137)" stroke="rgb(78,176,137)" stroke-width="1" opacity="0.9921568627450981" d="M 469.5 116 L 478 125.5 L 473 121.5 L 469.5 116 Z " /><path fill="rgb(78,176,137)" stroke="rgb(78,176,137)" stroke-width="1" opacity="0.9921568627450981" d="M 391.5 121 L 388.5 125 L 391.5 121 Z " /><path fill="rgb(78,176,137)" stroke="rgb(78,176,137)" stroke-width="1" opacity="0.9921568627450981" d="M 478.5 127 L 487 136.5 L 482 132.5 L 478.5 127 Z " /><path fill="rgb(78,176,137)" stroke="rgb(78,176,137)" stroke-width="1" opacity="0.9921568627450981" d="M 487.5 138 L 496 147.5 L 491 143.5 L 487.5 138 Z " /><path fill="rgb(78,176,137)" stroke="rgb(78,176,137)" stroke-width="1" opacity="0.9921568627450981" d="M 496.5 149 L 505 158.5 L 500 154.5 L 496.5 149 Z " /><path fill="rgb(78,176,137)" stroke="rgb(78,176,137)" stroke-width="1" opacity="0.9921568627450981" d="M 505.5 160 L 512 167.5 L 509 165.5 L 505.5 160 Z " /><path fill="rgb(78,176,137)" stroke="rgb(78,176,137)" stroke-width="1" opacity="0.9921568627450981" d="M 35.5 176 L 212 176.5 L 35.5 177 L 35.5 176 Z " /><path fill="rgb(78,176,137)" stroke="rgb(78,176,137)" stroke-width="1" opacity="0.9921568627450981" d="M 220.5 183 L 221 186.5 L 220 186.5 L 220.5 183 Z " /><path fill="rgb(78,176,137)" stroke="rgb(78,176,137)" stroke-width="1" opacity="0.9921568627450981" d="M 167.5 227 L 168 231.5 L 167 231.5 L 167.5 227 Z " /><path fill="rgb(78,176,137)" stroke="rgb(78,176,137)" stroke-width="1" opacity="0.9921568627450981" d="M 103.5 235 L 102.5 237 L 103.5 235 Z " /><path fill="rgb(78,176,137)" stroke="rgb(78,176,137)" stroke-width="1" opacity="0.9921568627450981" d="M 312.5 266 L 310.5 269 L 312.5 266 Z " /><path fill="rgb(78,176,137)" stroke="rgb(78,176,137)" stroke-width="1" opacity="0.9921568627450981" d="M 220.5 272 L 221 275.5 L 220 275.5 L 220.5 272 Z " /><path fill="rgb(78,176,137)" stroke="rgb(78,176,137)" stroke-width="1" opacity="0.9921568627450981" d="M 485.5 272 L 486 274.5 L 485 274.5 L 485.5 272 Z " /><path fill="rgb(78,176,137)" stroke="rgb(78,176,137)" stroke-width="1" opacity="0.9921568627450981" d="M 312.5 280 L 313.5 282 L 312.5 280 Z " /><path fill="rgb(78,176,137)" stroke="rgb(78,176,137)" stroke-width="1" opacity="0.9921568627450981" d="M 35.5 282 L 212 282.5 L 35.5 283 L 35.5 282 Z " /><path fill="rgb(78,176,137)" stroke="rgb(78,176,137)" stroke-width="1" opacity="0.9921568627450981" d="M 316.5 282 L 478 282.5 L 316.5 283 L 316.5 282 Z " /><path fill="rgb(78,176,137)" stroke="rgb(78,176,137)" stroke-width="1" opacity="0.9921568627450981" d="M 423.5 315 L 424 319.5 L 423 319.5 L 423.5 315 Z " /><path fill="rgb(78,176,137)" stroke="rgb(78,176,137)" stroke-width="1" opacity="0.9921568627450981" d="M 123.5 316 L 124 318.5 L 123 318.5 L 123.5 316 Z " /><path fill="rgb(78,176,137)" stroke="rgb(78,176,137)" stroke-width="1" opacity="0.9921568627450981" d="M 421.5 323 L 420.5 325 L 421.5 323 Z " /><path fill="rgb(78,176,137)" stroke="rgb(78,176,137)" stroke-width="1" opacity="0.9921568627450981" d="M 34.5 326 L 116 326.5 L 34.5 327 L 34.5 326 Z " /><path fill="rgb(78,176,137)" stroke="rgb(78,176,137)" stroke-width="1" opacity="0.9921568627450981" d="M 316.5 326 L 355 326.5 L 316.5 327 L 316.5 326 Z " /><path fill="rgb(78,176,137)" stroke="rgb(78,176,137)" stroke-width="1" opacity="0.9921568627450981" d="M 386.5 326 L 417 326.5 L 386.5 327 L 386.5 326 Z " /><path fill="rgb(78,176,137)" stroke="rgb(78,176,137)" stroke-width="1" opacity="0.9921568627450981" d="M 389.5 371 L 405.5 371 L 416.5 374 Q 429.5 379.5 438 389.5 Q 444.5 397 448 407.5 L 450 415.5 L 450 431.5 Q 445.7 454.7 429.5 466 Q 417 477 393.5 477 L 382.5 475 L 372.5 471 Q 362.8 465.8 356 457.5 Q 349.3 449.7 346 438.5 L 344 428.5 L 344 419.5 L 346 408.5 L 352 395.5 L 365.5 381 Q 374.9 373.4 389.5 371 Z M 396 397 L 392 399 Q 386 404 388 415 L 377 415 L 375 416 L 371 421 L 372 429 Q 376 435 388 433 L 389 446 L 395 450 L 403 449 L 406 445 L 406 433 Q 415 434 421 431 L 424 426 L 423 420 L 418 415 L 406 415 L 406 404 L 405 402 Q 403 396 396 397 Z " /><path fill="rgb(78,176,137)" stroke="rgb(78,176,137)" stroke-width="1" opacity="0.9921568627450981" d="M 34.5 388 L 213 388.5 L 34.5 389 L 34.5 388 Z " /><path fill="rgb(78,176,137)" stroke="rgb(78,176,137)" stroke-width="1" opacity="0.9921568627450981" d="M 217.5 390 L 218.5 392 L 217.5 390 Z " /><path fill="rgb(78,176,137)" stroke="rgb(78,176,137)" stroke-width="1" opacity="0.9921568627450981" d="M 220.5 395 L 221 398.5 L 220 398.5 L 220.5 395 Z " /><path fill="rgb(78,176,137)" stroke="rgb(78,176,137)" stroke-width="1" opacity="0.9921568627450981" d="M 35.5 432 L 79 432.5 L 35.5 433 L 35.5 432 Z " /><path fill="rgb(78,176,137)" stroke="rgb(78,176,137)" stroke-width="1" opacity="0.9921568627450981" d="M 115.5 432 L 159 432.5 L 115.5 433 L 115.5 432 Z " /><path fill="rgb(78,176,137)" stroke="rgb(78,176,137)" stroke-width="1" opacity="0.9921568627450981" d="M 109.5 434 L 107.5 437 L 109.5 434 Z " /><path fill="rgb(78,176,137)" stroke="rgb(78,176,137)" stroke-width="1" opacity="0.9921568627450981" d="M 167.5 439 L 168 442.5 L 167 442.5 L 167.5 439 Z " /><path fill="rgb(78,176,137)" stroke="rgb(78,176,137)" stroke-width="1" opacity="0.9921568627450981" d="M 86.5 446 L 84.5 449 L 86.5 446 Z " /></svg>