<svg width="512" height="512" version="1.1" xmlns="http://www.w3.org/2000/svg" desc="Created with imagetracer.js version 1.2.6" ><path fill="rgb(253,49,143)" stroke="rgb(253,49,143)" stroke-width="1" opacity="0.984313725490196" d="M 239.5 13 L 251.5 13 L 264.5 19 L 366 120.5 L 321.5 164 L 220 62.5 Q 214.8 54.2 214 41.5 L 217 30.5 L 224.5 20 Q 230.2 14.7 239.5 13 Z " /><path fill="rgb(253,49,143)" stroke="rgb(253,49,143)" stroke-width="1" opacity="0.984313725490196" d="M 465.5 220 L 467.5 223 L 465.5 220 Z " /><path fill="rgb(253,49,143)" stroke="rgb(253,49,143)" stroke-width="1" opacity="0.984313725490196" d="M 468.5 257 L 467.5 259 L 468.5 257 Z " /><path fill="rgb(253,49,143)" stroke="rgb(253,49,143)" stroke-width="1" opacity="0.984313725490196" d="M 113.5 262 L 222.5 372 L 168.5 318 L 148 338.5 L 150 341.5 L 144.5 337 Q 140.5 333.5 131.5 335 L 127.5 337 L 101 363.5 Q 97.7 367.2 99 375.5 Q 100.4 381.6 105 384.5 L 103.5 384 L 59.5 427 L 30 396.5 L 25 385.5 L 24 372.5 L 23 371.5 L 24 370.5 L 25 358.5 L 32 344.5 L 113.5 262 Z " /><path fill="rgb(253,49,143)" stroke="rgb(253,49,143)" stroke-width="1" opacity="0.984313725490196" d="M 464.5 262 L 463.5 264 L 464.5 262 Z " /><path fill="rgb(253,49,143)" stroke="rgb(253,49,143)" stroke-width="1" opacity="0.984313725490196" d="M 422.5 264 L 423.5 266 L 422.5 264 Z " /><path fill="rgb(253,49,143)" stroke="rgb(253,49,143)" stroke-width="1" opacity="0.984313725490196" d="M 149.5 358 L 147.5 361 L 149.5 358 Z " /><path fill="rgb(253,49,143)" stroke="rgb(253,49,143)" stroke-width="1" opacity="0.984313725490196" d="M 124.5 383 L 123.5 385 L 124.5 383 Z " /><path fill="rgb(253,49,143)" stroke="rgb(253,49,143)" stroke-width="1" opacity="0.984313725490196" d="M 111.5 387 L 117 387.5 L 111.5 388 L 111.5 387 Z " /><path fill="rgb(253,49,143)" stroke="rgb(253,49,143)" stroke-width="1" opacity="0.984313725490196" d="M 179.5 416 L 146.5 450 L 179.5 416 Z " /><path fill="rgb(253,49,143)" stroke="rgb(253,49,143)" stroke-width="1" opacity="0.984313725490196" d="M 142.5 452 L 141.5 454 L 142.5 452 Z " /><path fill="rgb(0,0,0)" stroke="rgb(0,0,0)" stroke-width="1" opacity="0" d="M 0 0 L 343 0.5 L 336 5.5 L 333 11.5 L 333 49.5 L 337 58 L 344.5 62 L 353.5 62 L 361 58 L 365 49.5 L 365 12.5 L 359.5 3 L 355 0.5 L 512 0 L 512 512 L 296.5 512 L 296.5 511 Q 308.3 508.8 314 500.5 L 320 487.5 L 320 474.5 L 313 460.5 L 268 415.5 Q 279.1 406.1 287 393.5 L 291 382.5 L 292 366.5 Q 287.9 343.6 272 332.5 Q 304.4 308.4 345.5 293 L 389.5 280 L 427.5 273 L 432.5 271 L 440.5 271 L 442.5 272 L 452.5 270 L 466 261.5 L 473 247.5 L 473 234.5 L 468 222.5 L 263.5 18 L 251.5 13 L 238.5 13 Q 228 15.5 222 22.5 L 215 35.5 L 214 46.5 L 214 48.5 L 205 97.5 L 198 124.5 Q 186.5 161 169 191.5 Q 152 221 130 245.5 L 36 339.5 L 26 355.5 L 23 372.5 L 24 373.5 L 25 385.5 L 32 399.5 L 85.5 453 Q 93.7 459.7 106.5 462 L 122.5 462 Q 136.6 459.1 145.5 451 L 180.5 417 L 269.5 506 L 281 511.5 L 0 512 L 0 0 Z M 439 28 L 434 30 L 395 69 L 393 74 Q 392 82 395 86 Q 398 91 406 93 Q 414 94 418 91 L 456 53 L 458 48 Q 459 38 455 35 Q 451 27 439 28 Z M 439 123 L 430 127 L 426 135 L 426 144 L 430 151 L 439 155 L 477 155 L 483 152 L 486 149 L 489 140 L 488 134 L 485 129 L 476 123 L 439 123 Z " /><path fill="rgb(0,0,0)" stroke="rgb(0,0,0)" stroke-width="1" opacity="0" d="M 245.5 352 L 259 364.5 L 260 376.5 L 258 380.5 L 245.5 393 L 225 371.5 L 245.5 352 Z " /><path fill="rgb(202,230,248)" stroke="rgb(202,230,248)" stroke-width="1" opacity="0.9882352941176471" d="M 214.5 49 L 220 62.5 L 421 263.5 L 321.5 165 L 169.5 317 L 114 262.5 Q 155.5 222 182 166.5 Q 192.6 143.6 200 117.5 L 207 88.5 L 214.5 49 Z " /><path fill="rgb(202,230,248)" stroke="rgb(202,230,248)" stroke-width="1" opacity="0.9882352941176471" d="M 391.5 279 L 394 279.5 L 391.5 280 L 391.5 279 Z " /><path fill="rgb(202,230,248)" stroke="rgb(202,230,248)" stroke-width="1" opacity="0.9882352941176471" d="M 378.5 282 L 381 282.5 L 378.5 283 L 378.5 282 Z " /><path fill="rgb(202,230,248)" stroke="rgb(202,230,248)" stroke-width="1" opacity="0.9882352941176471" d="M 374.5 283 L 377 283.5 L 374.5 284 L 374.5 283 Z " /><path fill="rgb(202,230,248)" stroke="rgb(202,230,248)" stroke-width="1" opacity="0.9882352941176471" d="M 343.5 293 L 342.5 295 L 343.5 293 Z " /><path fill="rgb(202,230,248)" stroke="rgb(202,230,248)" stroke-width="1" opacity="0.9882352941176471" d="M 338.5 295 L 340 295.5 L 336.5 297 L 336.5 296 L 338.5 295 Z " /><path fill="rgb(202,230,248)" stroke="rgb(202,230,248)" stroke-width="1" opacity="0.9882352941176471" d="M 324.5 301 L 326 301.5 L 321.5 304 L 322.5 302 L 324.5 301 Z " /><path fill="rgb(202,230,248)" stroke="rgb(202,230,248)" stroke-width="1" opacity="0.9882352941176471" d="M 308.5 309 L 307.5 311 L 308.5 309 Z " /><path fill="rgb(202,230,248)" stroke="rgb(202,230,248)" stroke-width="1" opacity="0.9882352941176471" d="M 304.5 311 L 303.5 313 L 299.5 315 L 300.5 313 L 304.5 311 Z " /><path fill="rgb(202,230,248)" stroke="rgb(202,230,248)" stroke-width="1" opacity="0.9882352941176471" d="M 297.5 315 L 296.5 317 L 292.5 319 L 293.5 317 L 297.5 315 Z " /><path fill="rgb(202,230,248)" stroke="rgb(202,230,248)" stroke-width="1" opacity="0.9882352941176471" d="M 290.5 319 L 289.5 321 L 290.5 319 Z " /><path fill="rgb(202,230,248)" stroke="rgb(202,230,248)" stroke-width="1" opacity="0.9882352941176471" d="M 285.5 322 L 284.5 324 L 285.5 322 Z " /><path fill="rgb(202,230,248)" stroke="rgb(202,230,248)" stroke-width="1" opacity="0.9882352941176471" d="M 282.5 324 L 281.5 326 L 271.5 332 L 271.5 331 L 282.5 324 Z " /><path fill="rgb(202,230,248)" stroke="rgb(202,230,248)" stroke-width="1" opacity="0.9882352941176471" d="M 131.5 335 L 140.5 335 L 150 342.5 L 152 351.5 L 147 361.5 L 125.5 383 Q 121.1 388.6 109.5 387 L 101 380.5 Q 97.9 376.1 99 367.5 L 101 363.5 L 127.5 337 L 131.5 335 Z " /><path fill="rgb(202,230,248)" stroke="rgb(202,230,248)" stroke-width="1" opacity="0.9882352941176471" d="M 236.5 359 L 233.5 363 L 236.5 359 Z " /><path fill="rgb(202,230,248)" stroke="rgb(202,230,248)" stroke-width="1" opacity="0.9882352941176471" d="M 231.5 364 L 224.5 372 L 231.5 364 Z " /><path fill="rgb(27,217,222)" stroke="rgb(27,217,222)" stroke-width="1" opacity="0.9490196078431372" d="M 343.5 0 L 354.5 0 L 362 5.5 L 365 12.5 L 365 49.5 L 361 58 L 353.5 62 L 344.5 62 L 337 58 L 333 49.5 L 333 11.5 L 339.5 2 L 343.5 0 Z " /><path fill="rgb(27,217,222)" stroke="rgb(27,217,222)" stroke-width="1" opacity="0.9490196078431372" d="M 438.5 28 Q 451 27 455 34.5 Q 459.2 38.3 458 47.5 L 456 52.5 L 417.5 91 Q 413.5 94 405.5 93 Q 398.3 91.2 395 85.5 Q 392 81.5 393 73.5 L 395 68.5 L 433.5 30 L 438.5 28 Z " /><path fill="rgb(27,217,222)" stroke="rgb(27,217,222)" stroke-width="1" opacity="0.9490196078431372" d="M 438.5 123 L 475.5 123 L 485 128.5 L 488 133.5 L 489 139.5 L 486 148.5 L 482.5 152 L 476.5 155 L 438.5 155 L 430 151 L 426 143.5 L 426 134.5 L 430 127 L 438.5 123 Z " /><path fill="rgb(183,224,245)" stroke="rgb(183,224,245)" stroke-width="1" opacity="0.996078431372549" d="M 116.5 259 L 114.5 262 L 116.5 259 Z " /><path fill="rgb(183,224,245)" stroke="rgb(183,224,245)" stroke-width="1" opacity="0.996078431372549" d="M 421.5 264 L 422.5 266 L 421.5 264 Z " /><path fill="rgb(183,224,245)" stroke="rgb(183,224,245)" stroke-width="1" opacity="0.996078431372549" d="M 432.5 270 L 434 270.5 L 431.5 272 L 432.5 270 Z " /><path fill="rgb(183,224,245)" stroke="rgb(183,224,245)" stroke-width="1" opacity="0.996078431372549" d="M 427.5 271 L 430 271.5 L 426.5 273 L 427.5 271 Z " /><path fill="rgb(183,224,245)" stroke="rgb(183,224,245)" stroke-width="1" opacity="0.996078431372549" d="M 423.5 272 L 425 272.5 L 422.5 274 L 423.5 272 Z " /><path fill="rgb(183,224,245)" stroke="rgb(183,224,245)" stroke-width="1" opacity="0.996078431372549" d="M 418.5 273 L 421 273.5 L 417.5 275 L 418.5 273 Z " /><path fill="rgb(183,224,245)" stroke="rgb(183,224,245)" stroke-width="1" opacity="0.996078431372549" d="M 413.5 274 L 416 274.5 L 413.5 275 L 413.5 274 Z " /><path fill="rgb(183,224,245)" stroke="rgb(183,224,245)" stroke-width="1" opacity="0.996078431372549" d="M 408.5 275 L 411 275.5 L 407.5 277 L 408.5 275 Z " /><path fill="rgb(183,224,245)" stroke="rgb(183,224,245)" stroke-width="1" opacity="0.996078431372549" d="M 403.5 276 L 406 276.5 L 402.5 278 L 403.5 276 Z " /><path fill="rgb(183,224,245)" stroke="rgb(183,224,245)" stroke-width="1" opacity="0.996078431372549" d="M 399.5 277 L 401 277.5 L 398.5 279 L 399.5 277 Z " /><path fill="rgb(183,224,245)" stroke="rgb(183,224,245)" stroke-width="1" opacity="0.996078431372549" d="M 394.5 278 L 397 278.5 L 394.5 279 L 394.5 278 Z " /><path fill="rgb(183,224,245)" stroke="rgb(183,224,245)" stroke-width="1" opacity="0.996078431372549" d="M 389.5 279 L 391 279.5 L 388.5 281 L 389.5 279 Z " /><path fill="rgb(183,224,245)" stroke="rgb(183,224,245)" stroke-width="1" opacity="0.996078431372549" d="M 380.5 281 L 383 281.5 L 380.5 282 L 380.5 281 Z " /><path fill="rgb(183,224,245)" stroke="rgb(183,224,245)" stroke-width="1" opacity="0.996078431372549" d="M 369.5 284 L 372 284.5 L 369.5 285 L 369.5 284 Z " /><path fill="rgb(183,224,245)" stroke="rgb(183,224,245)" stroke-width="1" opacity="0.996078431372549" d="M 350.5 290 L 352 290.5 L 347.5 292 L 347.5 291 L 350.5 290 Z " /><path fill="rgb(183,224,245)" stroke="rgb(183,224,245)" stroke-width="1" opacity="0.996078431372549" d="M 345.5 292 L 344.5 294 L 345.5 292 Z " /><path fill="rgb(183,224,245)" stroke="rgb(183,224,245)" stroke-width="1" opacity="0.996078431372549" d="M 342.5 293 L 341.5 295 L 340 294.5 L 342.5 293 Z " /><path fill="rgb(183,224,245)" stroke="rgb(183,224,245)" stroke-width="1" opacity="0.996078431372549" d="M 321.5 302 L 320.5 304 L 319 303.5 L 321.5 302 Z " /><path fill="rgb(183,224,245)" stroke="rgb(183,224,245)" stroke-width="1" opacity="0.996078431372549" d="M 317.5 304 L 316.5 306 L 315 305.5 L 317.5 304 Z " /><path fill="rgb(183,224,245)" stroke="rgb(183,224,245)" stroke-width="1" opacity="0.996078431372549" d="M 307.5 309 L 305.5 312 L 305 310 L 307.5 309 Z " /><path fill="rgb(183,224,245)" stroke="rgb(183,224,245)" stroke-width="1" opacity="0.996078431372549" d="M 299.5 313 L 298.5 315 L 299.5 313 Z " /><path fill="rgb(183,224,245)" stroke="rgb(183,224,245)" stroke-width="1" opacity="0.996078431372549" d="M 169.5 317 L 223.5 371 L 236 359.5 L 233 364 L 223.5 372 L 169.5 317 Z " /><path fill="rgb(183,224,245)" stroke="rgb(183,224,245)" stroke-width="1" opacity="0.996078431372549" d="M 292.5 317 L 291.5 319 L 292.5 317 Z " /><path fill="rgb(183,224,245)" stroke="rgb(183,224,245)" stroke-width="1" opacity="0.996078431372549" d="M 289.5 319 L 287.5 322 L 286 321.5 L 289.5 319 Z " /><path fill="rgb(183,224,245)" stroke="rgb(183,224,245)" stroke-width="1" opacity="0.996078431372549" d="M 284.5 322 L 283.5 324 L 284.5 322 Z " /><path fill="rgb(183,224,245)" stroke="rgb(183,224,245)" stroke-width="1" opacity="0.996078431372549" d="M 279.5 325 L 278.5 327 L 279.5 325 Z " /><path fill="rgb(183,224,245)" stroke="rgb(183,224,245)" stroke-width="1" opacity="0.996078431372549" d="M 276.5 327 L 275.5 329 L 276.5 327 Z " /><path fill="rgb(183,224,245)" stroke="rgb(183,224,245)" stroke-width="1" opacity="0.996078431372549" d="M 273.5 329 L 272.5 331 L 273.5 329 Z " /><path fill="rgb(183,224,245)" stroke="rgb(183,224,245)" stroke-width="1" opacity="0.996078431372549" d="M 270.5 331 L 268.5 334 L 270.5 331 Z " /><path fill="rgb(183,224,245)" stroke="rgb(183,224,245)" stroke-width="1" opacity="0.996078431372549" d="M 266.5 334 L 264.5 337 L 266.5 334 Z " /><path fill="rgb(183,224,245)" stroke="rgb(183,224,245)" stroke-width="1" opacity="0.996078431372549" d="M 262.5 337 L 260.5 340 L 256.5 343 L 259.5 339 L 262.5 337 Z " /><path fill="rgb(183,224,245)" stroke="rgb(183,224,245)" stroke-width="1" opacity="0.996078431372549" d="M 254.5 343 L 251.5 347 L 254.5 343 Z " /><path fill="rgb(183,224,245)" stroke="rgb(183,224,245)" stroke-width="1" opacity="0.996078431372549" d="M 249.5 347 L 245.5 352 L 240.5 356 L 239 356.5 L 249.5 347 Z " /><path fill="rgb(183,224,246)" stroke="rgb(183,224,246)" stroke-width="1" opacity="1" d="M 321.5 165 L 422.5 266 L 432 270.5 L 376.5 282 L 347.5 291 L 325.5 300 Q 265.9 326.9 223.5 371 L 170 316.5 L 321.5 165 Z " /><path fill="rgb(252,15,127)" stroke="rgb(252,15,127)" stroke-width="1" opacity="0.9921568627450981" d="M 365.5 121 L 409 163.5 Q 408.3 165.8 410.5 165 L 465 219.5 L 472 231.5 L 473 245.5 L 472 248.5 L 466 262 L 456.5 268 L 442.5 272 L 427.5 268 L 421.5 264 L 322 164.5 L 365.5 121 Z " /><path fill="rgb(252,15,127)" stroke="rgb(252,15,127)" stroke-width="1" opacity="0.9921568627450981" d="M 168.5 318 L 223 372.5 L 146 449.5 Q 146.8 451.8 144.5 451 Q 137.1 458.1 125.5 461 L 108.5 462 L 91.5 457 L 84.5 452 L 60 427.5 L 102.5 384 L 111.5 388 L 116.5 388 L 123.5 385 L 150 358.5 Q 153 354.5 152 346.5 L 148 338.5 L 168.5 318 Z " /><path fill="rgb(144,71,13)" stroke="rgb(144,71,13)" stroke-width="1" opacity="0.9803921568627451" d="M 270.5 332 L 281 341.5 L 290 357.5 L 292 366.5 L 292 376.5 L 287 393.5 Q 279.1 406.1 268 415.5 L 316 464.5 L 320 474.5 L 320 487.5 Q 317 499.5 308.5 506 Q 300.2 514.2 281.5 512 L 269.5 506 L 180 416.5 L 223.5 372 L 245.5 393 L 258 380.5 Q 261.5 376.5 260 367.5 L 259 364.5 L 246 351.5 L 270.5 332 Z " /></svg>