<svg width="512" height="512" version="1.1" xmlns="http://www.w3.org/2000/svg" desc="Created with imagetracer.js version 1.2.6" ><path fill="rgb(110,180,58)" stroke="rgb(110,180,58)" stroke-width="1" opacity="1" d="M 294.5 72 L 301 74 L 398 213.5 L 399 220.5 L 397 224 L 394.5 225 L 118.5 225 L 116 224 L 114 220.5 L 114 215.5 L 178.5 122 L 184.5 121 L 244.5 165 L 251 154.5 L 290 76.5 L 294.5 72 Z " /><path fill="rgb(178,215,221)" stroke="rgb(178,215,221)" stroke-width="1" opacity="1" d="M 293.5 72 L 290.5 76 L 293.5 72 Z " /><path fill="rgb(178,215,221)" stroke="rgb(178,215,221)" stroke-width="1" opacity="1" d="M 302.5 76 L 303.5 78 L 302.5 76 Z " /><path fill="rgb(178,215,221)" stroke="rgb(178,215,221)" stroke-width="1" opacity="1" d="M 304.5 79 L 305.5 81 L 304.5 79 Z " /><path fill="rgb(178,215,221)" stroke="rgb(178,215,221)" stroke-width="1" opacity="1" d="M 306.5 82 L 307.5 84 L 306.5 82 Z " /><path fill="rgb(178,215,221)" stroke="rgb(178,215,221)" stroke-width="1" opacity="1" d="M 309.5 86 L 310.5 88 L 309.5 86 Z " /><path fill="rgb(178,215,221)" stroke="rgb(178,215,221)" stroke-width="1" opacity="1" d="M 311.5 89 L 312.5 91 L 311.5 89 Z " /><path fill="rgb(178,215,221)" stroke="rgb(178,215,221)" stroke-width="1" opacity="1" d="M 313.5 92 L 314.5 94 L 313.5 92 Z " /><path fill="rgb(178,215,221)" stroke="rgb(178,215,221)" stroke-width="1" opacity="1" d="M 278.5 99 L 278 100.5 L 276.5 103 L 277 101.5 L 278.5 99 Z " /><path fill="rgb(178,215,221)" stroke="rgb(178,215,221)" stroke-width="1" opacity="1" d="M 318.5 99 L 319.5 101 L 318.5 99 Z " /><path fill="rgb(178,215,221)" stroke="rgb(178,215,221)" stroke-width="1" opacity="1" d="M 320.5 102 L 321.5 104 L 320.5 102 Z " /><path fill="rgb(178,215,221)" stroke="rgb(178,215,221)" stroke-width="1" opacity="1" d="M 322.5 105 L 323.5 107 L 322.5 105 Z " /><path fill="rgb(178,215,221)" stroke="rgb(178,215,221)" stroke-width="1" opacity="1" d="M 325.5 109 L 326.5 111 L 325.5 109 Z " /><path fill="rgb(178,215,221)" stroke="rgb(178,215,221)" stroke-width="1" opacity="1" d="M 327.5 112 L 328.5 114 L 327.5 112 Z " /><path fill="rgb(178,215,221)" stroke="rgb(178,215,221)" stroke-width="1" opacity="1" d="M 329.5 115 L 330.5 117 L 329.5 115 Z " /><path fill="rgb(178,215,221)" stroke="rgb(178,215,221)" stroke-width="1" opacity="1" d="M 334.5 122 L 335.5 124 L 334.5 122 Z " /><path fill="rgb(178,215,221)" stroke="rgb(178,215,221)" stroke-width="1" opacity="1" d="M 189.5 123 L 190.5 125 L 189.5 123 Z " /><path fill="rgb(178,215,221)" stroke="rgb(178,215,221)" stroke-width="1" opacity="1" d="M 176.5 124 L 175.5 126 L 176.5 124 Z " /><path fill="rgb(178,215,221)" stroke="rgb(178,215,221)" stroke-width="1" opacity="1" d="M 336.5 125 L 337.5 127 L 336.5 125 Z " /><path fill="rgb(178,215,221)" stroke="rgb(178,215,221)" stroke-width="1" opacity="1" d="M 193.5 126 L 194.5 128 L 193.5 126 Z " /><path fill="rgb(178,215,221)" stroke="rgb(178,215,221)" stroke-width="1" opacity="1" d="M 174.5 127 L 173.5 129 L 174.5 127 Z " /><path fill="rgb(178,215,221)" stroke="rgb(178,215,221)" stroke-width="1" opacity="1" d="M 196.5 128 L 198.5 131 L 196.5 128 Z " /><path fill="rgb(178,215,221)" stroke="rgb(178,215,221)" stroke-width="1" opacity="1" d="M 338.5 128 L 339.5 130 L 338.5 128 Z " /><path fill="rgb(178,215,221)" stroke="rgb(178,215,221)" stroke-width="1" opacity="1" d="M 172.5 130 L 171.5 132 L 172.5 130 Z " /><path fill="rgb(178,215,221)" stroke="rgb(178,215,221)" stroke-width="1" opacity="1" d="M 200.5 131 L 201.5 133 L 200.5 131 Z " /><path fill="rgb(178,215,221)" stroke="rgb(178,215,221)" stroke-width="1" opacity="1" d="M 341.5 132 L 342.5 134 L 341.5 132 Z " /><path fill="rgb(178,215,221)" stroke="rgb(178,215,221)" stroke-width="1" opacity="1" d="M 170.5 133 L 169.5 135 L 170.5 133 Z " /><path fill="rgb(178,215,221)" stroke="rgb(178,215,221)" stroke-width="1" opacity="1" d="M 204.5 134 L 205.5 136 L 204.5 134 Z " /><path fill="rgb(178,215,221)" stroke="rgb(178,215,221)" stroke-width="1" opacity="1" d="M 343.5 135 L 344.5 137 L 343.5 135 Z " /><path fill="rgb(178,215,221)" stroke="rgb(178,215,221)" stroke-width="1" opacity="1" d="M 167.5 137 L 166.5 139 L 167.5 137 Z " /><path fill="rgb(178,215,221)" stroke="rgb(178,215,221)" stroke-width="1" opacity="1" d="M 208.5 137 L 209.5 139 L 208.5 137 Z " /><path fill="rgb(178,215,221)" stroke="rgb(178,215,221)" stroke-width="1" opacity="1" d="M 345.5 138 L 346.5 140 L 345.5 138 Z " /><path fill="rgb(178,215,221)" stroke="rgb(178,215,221)" stroke-width="1" opacity="1" d="M 165.5 140 L 164.5 142 L 165.5 140 Z " /><path fill="rgb(178,215,221)" stroke="rgb(178,215,221)" stroke-width="1" opacity="1" d="M 212.5 140 L 213.5 142 L 212.5 140 Z " /><path fill="rgb(178,215,221)" stroke="rgb(178,215,221)" stroke-width="1" opacity="1" d="M 163.5 143 L 162.5 145 L 163.5 143 Z " /><path fill="rgb(178,215,221)" stroke="rgb(178,215,221)" stroke-width="1" opacity="1" d="M 216.5 143 L 217.5 145 L 216.5 143 Z " /><path fill="rgb(178,215,221)" stroke="rgb(178,215,221)" stroke-width="1" opacity="1" d="M 255.5 144 L 255 145.5 L 253.5 148 L 254 146.5 L 255.5 144 Z " /><path fill="rgb(178,215,221)" stroke="rgb(178,215,221)" stroke-width="1" opacity="1" d="M 350.5 145 L 351.5 147 L 350.5 145 Z " /><path fill="rgb(178,215,221)" stroke="rgb(178,215,221)" stroke-width="1" opacity="1" d="M 161.5 146 L 160.5 148 L 161.5 146 Z " /><path fill="rgb(178,215,221)" stroke="rgb(178,215,221)" stroke-width="1" opacity="1" d="M 220.5 146 L 221.5 148 L 220.5 146 Z " /><path fill="rgb(178,215,221)" stroke="rgb(178,215,221)" stroke-width="1" opacity="1" d="M 352.5 148 L 353.5 150 L 352.5 148 Z " /><path fill="rgb(178,215,221)" stroke="rgb(178,215,221)" stroke-width="1" opacity="1" d="M 224.5 149 L 225.5 151 L 224.5 149 Z " /><path fill="rgb(178,215,221)" stroke="rgb(178,215,221)" stroke-width="1" opacity="1" d="M 227.5 151 L 229.5 154 L 227.5 151 Z " /><path fill="rgb(178,215,221)" stroke="rgb(178,215,221)" stroke-width="1" opacity="1" d="M 354.5 151 L 355.5 153 L 354.5 151 Z " /><path fill="rgb(178,215,221)" stroke="rgb(178,215,221)" stroke-width="1" opacity="1" d="M 156.5 153 L 155.5 155 L 156.5 153 Z " /><path fill="rgb(178,215,221)" stroke="rgb(178,215,221)" stroke-width="1" opacity="1" d="M 231.5 154 L 232.5 156 L 231.5 154 Z " /><path fill="rgb(178,215,221)" stroke="rgb(178,215,221)" stroke-width="1" opacity="1" d="M 357.5 155 L 358.5 157 L 357.5 155 Z " /><path fill="rgb(178,215,221)" stroke="rgb(178,215,221)" stroke-width="1" opacity="1" d="M 154.5 156 L 153.5 158 L 154.5 156 Z " /><path fill="rgb(178,215,221)" stroke="rgb(178,215,221)" stroke-width="1" opacity="1" d="M 235.5 157 L 236.5 159 L 235.5 157 Z " /><path fill="rgb(178,215,221)" stroke="rgb(178,215,221)" stroke-width="1" opacity="1" d="M 359.5 158 L 360.5 160 L 359.5 158 Z " /><path fill="rgb(178,215,221)" stroke="rgb(178,215,221)" stroke-width="1" opacity="1" d="M 152.5 159 L 151.5 161 L 152.5 159 Z " /><path fill="rgb(178,215,221)" stroke="rgb(178,215,221)" stroke-width="1" opacity="1" d="M 239.5 160 L 240.5 162 L 239.5 160 Z " /><path fill="rgb(178,215,221)" stroke="rgb(178,215,221)" stroke-width="1" opacity="1" d="M 361.5 161 L 362.5 163 L 361.5 161 Z " /><path fill="rgb(178,215,221)" stroke="rgb(178,215,221)" stroke-width="1" opacity="1" d="M 150.5 162 L 149.5 164 L 150.5 162 Z " /><path fill="rgb(178,215,221)" stroke="rgb(178,215,221)" stroke-width="1" opacity="1" d="M 243.5 163 L 246 163.5 Q 243.9 166.8 243.5 163 Z " /><path fill="rgb(178,215,221)" stroke="rgb(178,215,221)" stroke-width="1" opacity="1" d="M 366.5 168 L 367.5 170 L 366.5 168 Z " /><path fill="rgb(178,215,221)" stroke="rgb(178,215,221)" stroke-width="1" opacity="1" d="M 145.5 169 L 144.5 171 L 145.5 169 Z " /><path fill="rgb(178,215,221)" stroke="rgb(178,215,221)" stroke-width="1" opacity="1" d="M 368.5 171 L 369.5 173 L 368.5 171 Z " /><path fill="rgb(178,215,221)" stroke="rgb(178,215,221)" stroke-width="1" opacity="1" d="M 143.5 172 L 142.5 174 L 143.5 172 Z " /><path fill="rgb(178,215,221)" stroke="rgb(178,215,221)" stroke-width="1" opacity="1" d="M 370.5 174 L 371.5 176 L 370.5 174 Z " /><path fill="rgb(178,215,221)" stroke="rgb(178,215,221)" stroke-width="1" opacity="1" d="M 141.5 175 L 140.5 177 L 141.5 175 Z " /><path fill="rgb(178,215,221)" stroke="rgb(178,215,221)" stroke-width="1" opacity="1" d="M 139.5 178 L 138.5 180 L 139.5 178 Z " /><path fill="rgb(178,215,221)" stroke="rgb(178,215,221)" stroke-width="1" opacity="1" d="M 373.5 178 L 374.5 180 L 373.5 178 Z " /><path fill="rgb(178,215,221)" stroke="rgb(178,215,221)" stroke-width="1" opacity="1" d="M 375.5 181 L 376.5 183 L 375.5 181 Z " /><path fill="rgb(178,215,221)" stroke="rgb(178,215,221)" stroke-width="1" opacity="1" d="M 136.5 182 L 135.5 184 L 136.5 182 Z " /><path fill="rgb(178,215,221)" stroke="rgb(178,215,221)" stroke-width="1" opacity="1" d="M 377.5 184 L 378.5 186 L 377.5 184 Z " /><path fill="rgb(178,215,221)" stroke="rgb(178,215,221)" stroke-width="1" opacity="1" d="M 134.5 185 L 133.5 187 L 134.5 185 Z " /><path fill="rgb(178,215,221)" stroke="rgb(178,215,221)" stroke-width="1" opacity="1" d="M 132.5 188 L 131.5 190 L 132.5 188 Z " /><path fill="rgb(178,215,221)" stroke="rgb(178,215,221)" stroke-width="1" opacity="1" d="M 130.5 191 L 129.5 193 L 130.5 191 Z " /><path fill="rgb(178,215,221)" stroke="rgb(178,215,221)" stroke-width="1" opacity="1" d="M 382.5 191 L 383.5 193 L 382.5 191 Z " /><path fill="rgb(178,215,221)" stroke="rgb(178,215,221)" stroke-width="1" opacity="1" d="M 384.5 194 L 385.5 196 L 384.5 194 Z " /><path fill="rgb(178,215,221)" stroke="rgb(178,215,221)" stroke-width="1" opacity="1" d="M 386.5 197 L 387.5 199 L 386.5 197 Z " /><path fill="rgb(178,215,221)" stroke="rgb(178,215,221)" stroke-width="1" opacity="1" d="M 125.5 198 L 124.5 200 L 125.5 198 Z " /><path fill="rgb(178,215,221)" stroke="rgb(178,215,221)" stroke-width="1" opacity="1" d="M 123.5 201 L 122.5 203 L 123.5 201 Z " /><path fill="rgb(178,215,221)" stroke="rgb(178,215,221)" stroke-width="1" opacity="1" d="M 389.5 201 L 390.5 203 L 389.5 201 Z " /><path fill="rgb(178,215,221)" stroke="rgb(178,215,221)" stroke-width="1" opacity="1" d="M 121.5 204 L 120.5 206 L 121.5 204 Z " /><path fill="rgb(178,215,221)" stroke="rgb(178,215,221)" stroke-width="1" opacity="1" d="M 391.5 204 L 392.5 206 L 391.5 204 Z " /><path fill="rgb(178,215,221)" stroke="rgb(178,215,221)" stroke-width="1" opacity="1" d="M 119.5 207 L 118.5 209 L 119.5 207 Z " /><path fill="rgb(178,215,221)" stroke="rgb(178,215,221)" stroke-width="1" opacity="1" d="M 393.5 207 L 394.5 209 L 393.5 207 Z " /><path fill="rgb(178,215,221)" stroke="rgb(178,215,221)" stroke-width="1" opacity="1" d="M 113.5 216 L 114 219.5 L 113 219.5 L 113.5 216 Z " /><path fill="rgb(178,215,221)" stroke="rgb(178,215,221)" stroke-width="1" opacity="1" d="M 399.5 216 L 400 219.5 L 399 219.5 L 399.5 216 Z " /><path fill="rgb(178,215,221)" stroke="rgb(178,215,221)" stroke-width="1" opacity="1" d="M 89.5 250 L 91.5 253 L 89.5 250 Z " /><path fill="rgb(178,215,221)" stroke="rgb(178,215,221)" stroke-width="1" opacity="1" d="M 90.5 375 L 89.5 377 L 90.5 375 Z " /><path fill="rgb(178,215,221)" stroke="rgb(178,215,221)" stroke-width="1" opacity="1" d="M 186.5 470 L 184.5 473 L 186.5 470 Z " /><path fill="rgb(178,215,221)" stroke="rgb(178,215,221)" stroke-width="1" opacity="1" d="M 89.5 471 L 90.5 473 L 89.5 471 Z " /><path fill="rgb(0,0,0)" stroke="rgb(0,0,0)" stroke-width="1" opacity="0" d="M 0 0 L 52 0.5 L 49 3.5 L 49 508.5 L 51.5 512 L 0.5 512 L 0 511.5 L 0 0 Z " /><path fill="rgb(0,0,0)" stroke="rgb(0,0,0)" stroke-width="1" opacity="0" d="M 460.5 0 L 511.5 0 L 512 0.5 L 512 512 L 460 511.5 L 463 508.5 L 463 3.5 L 460.5 0 Z " /><path fill="rgb(188,223,249)" stroke="rgb(188,223,249)" stroke-width="1" opacity="1" d="M 94.5 38 L 417.5 38 L 423 40 L 425 44.5 L 425 246.5 L 421.5 252 L 417.5 254 L 94.5 254 L 89 249.5 L 88 246.5 L 88 44.5 L 91.5 39 L 94.5 38 Z M 294 72 L 290 76 L 245 164 L 187 121 L 180 121 L 175 126 L 113 217 L 114 222 L 118 225 L 396 225 L 400 220 L 399 215 L 391 203 L 304 78 L 299 72 L 294 72 Z " /><path fill="rgb(254,175,0)" stroke="rgb(254,175,0)" stroke-width="1" opacity="1" d="M 211.5 374 L 301.5 374 L 305 377.5 L 306 379.5 L 306 469.5 L 301.5 474 L 211.5 474 L 207 470.5 L 206 468.5 L 206 379.5 L 209.5 375 L 211.5 374 Z " /><path fill="rgb(211,168,117)" stroke="rgb(211,168,117)" stroke-width="1" opacity="1" d="M 422.5 39 L 424.5 42 L 422.5 39 Z " /><path fill="rgb(211,168,117)" stroke="rgb(211,168,117)" stroke-width="1" opacity="1" d="M 423.5 250 L 421.5 253 L 423.5 250 Z " /><path fill="rgb(211,168,117)" stroke="rgb(211,168,117)" stroke-width="1" opacity="1" d="M 89.5 251 L 90.5 253 L 89.5 251 Z " /><path fill="rgb(212,168,117)" stroke="rgb(212,168,117)" stroke-width="1" opacity="1" d="M 91.5 30 L 420.5 30 Q 427.7 31.8 431 37.5 L 433 41.5 L 433 249.5 Q 431.5 256 426.5 259 L 420.5 262 L 91.5 262 L 82 254.5 L 80 249.5 L 80 41.5 L 87.5 32 L 91.5 30 Z M 92 38 L 88 42 L 88 250 L 89 252 L 93 254 L 420 254 L 422 253 L 425 249 L 425 42 L 421 38 L 92 38 Z " /><path fill="rgb(212,168,117)" stroke="rgb(212,168,117)" stroke-width="1" opacity="1" d="M 92.5 277 L 419.5 277 L 424 280.5 L 425 282.5 L 425 344.5 L 423 349 L 419.5 351 L 93.5 351 L 89 347.5 L 88 345.5 L 88 281.5 L 92.5 277 Z " /><path fill="rgb(212,168,117)" stroke="rgb(212,168,117)" stroke-width="1" opacity="1" d="M 327.5 375 L 326.5 377 L 327.5 375 Z " /><path fill="rgb(212,168,117)" stroke="rgb(212,168,117)" stroke-width="1" opacity="1" d="M 423.5 470 L 421.5 473 L 423.5 470 Z " /><path fill="rgb(212,168,117)" stroke="rgb(212,168,117)" stroke-width="1" opacity="1" d="M 326.5 471 L 327.5 473 L 326.5 471 Z " /><path fill="rgb(255,65,65)" stroke="rgb(255,65,65)" stroke-width="1" opacity="1" d="M 330.5 374 L 418.5 374 L 424 377.5 L 425 380.5 L 425 467.5 L 420.5 473 L 418.5 474 L 330.5 474 L 326 470.5 L 325 468.5 L 325 379.5 L 328.5 375 L 330.5 374 Z " /><path fill="rgb(85,172,237)" stroke="rgb(85,172,237)" stroke-width="1" opacity="1" d="M 93.5 374 L 181.5 374 L 187 377.5 L 188 380.5 L 188 467.5 L 183.5 473 L 181.5 474 L 93.5 474 L 89 470.5 L 88 468.5 L 88 380.5 L 91.5 375 L 93.5 374 Z " /><path fill="rgb(253,216,167)" stroke="rgb(253,216,167)" stroke-width="1" opacity="0.996078431372549" d="M 52.5 0 L 459.5 0 L 463 3.5 L 463 508.5 L 459.5 512 L 52.5 512 L 49 508.5 L 49 3.5 L 52.5 0 Z M 92 30 L 88 32 L 80 42 L 80 250 L 82 255 L 92 262 L 421 262 L 427 259 Q 431 256 433 250 L 433 42 L 431 38 Q 428 32 421 30 L 92 30 Z M 93 277 L 88 282 L 88 346 L 89 348 L 94 351 L 420 351 L 423 349 L 425 345 L 425 283 L 424 281 L 420 277 L 93 277 Z M 93 374 L 91 375 L 88 379 L 88 470 L 89 472 L 93 474 L 183 474 L 185 473 L 188 469 L 188 379 L 184 374 L 93 374 Z M 212 374 L 210 375 L 206 380 L 206 469 L 207 471 L 212 474 L 302 474 L 306 470 L 306 380 L 305 378 L 302 374 L 212 374 Z M 330 374 L 328 375 L 325 379 L 325 470 L 326 472 L 330 474 L 420 474 L 422 473 L 425 469 L 425 380 L 424 378 L 420 374 L 330 374 Z " /><path fill="rgb(253,216,167)" stroke="rgb(253,216,167)" stroke-width="1" opacity="0.996078431372549" d="M 90.5 39 L 89.5 41 L 90.5 39 Z " /></svg>