<svg width="512" height="512" version="1.1" xmlns="http://www.w3.org/2000/svg" desc="Created with imagetracer.js version 1.2.6" ><path fill="rgb(46,139,199)" stroke="rgb(46,139,199)" stroke-width="1" opacity="0.9882352941176471" d="M 107.5 32 L 110 32.5 L 107.5 33 L 107.5 32 Z " /><path fill="rgb(46,139,199)" stroke="rgb(46,139,199)" stroke-width="1" opacity="0.9882352941176471" d="M 336.5 37 L 337.5 39 L 336.5 37 Z " /><path fill="rgb(46,139,199)" stroke="rgb(46,139,199)" stroke-width="1" opacity="0.9882352941176471" d="M 89.5 39 L 88.5 41 L 85.5 43 L 87.5 40 L 89.5 39 Z " /><path fill="rgb(46,139,199)" stroke="rgb(46,139,199)" stroke-width="1" opacity="0.9882352941176471" d="M 339.5 39 L 344.5 42 L 359 56.5 L 344.5 43 Q 339.9 41.8 339.5 39 Z " /><path fill="rgb(46,139,199)" stroke="rgb(46,139,199)" stroke-width="1" opacity="0.9882352941176471" d="M 83.5 43 L 75.5 52 L 83.5 43 Z " /><path fill="rgb(46,139,199)" stroke="rgb(46,139,199)" stroke-width="1" opacity="0.9882352941176471" d="M 74.5 53 L 73 55.5 L 71.5 58 L 72 56.5 L 74.5 53 Z " /><path fill="rgb(46,139,199)" stroke="rgb(46,139,199)" stroke-width="1" opacity="0.9882352941176471" d="M 113.5 53 L 316 53.5 L 113.5 54 L 113.5 53 Z " /><path fill="rgb(46,139,199)" stroke="rgb(46,139,199)" stroke-width="1" opacity="0.9882352941176471" d="M 359.5 58 L 367.5 67 L 359.5 58 Z " /><path fill="rgb(46,139,199)" stroke="rgb(46,139,199)" stroke-width="1" opacity="0.9882352941176471" d="M 98.5 59 L 97.5 61 L 98.5 59 Z " /><path fill="rgb(46,139,199)" stroke="rgb(46,139,199)" stroke-width="1" opacity="0.9882352941176471" d="M 92.5 65 L 91.5 67 L 92.5 65 Z " /><path fill="rgb(46,139,199)" stroke="rgb(46,139,199)" stroke-width="1" opacity="0.9882352941176471" d="M 90.5 68 L 89.5 70 L 90.5 68 Z " /><path fill="rgb(46,139,199)" stroke="rgb(46,139,199)" stroke-width="1" opacity="0.9882352941176471" d="M 369.5 69 L 377.5 78 L 369.5 69 Z " /><path fill="rgb(46,139,199)" stroke="rgb(46,139,199)" stroke-width="1" opacity="0.9882352941176471" d="M 341.5 71 L 420 156.5 Q 425.2 162.3 426 171 L 406.5 171 L 405.5 172 L 403 163 L 397.5 160 L 349.5 160 L 343 155.5 L 341 150.5 L 341.5 71 Z " /><path fill="rgb(46,139,199)" stroke="rgb(46,139,199)" stroke-width="1" opacity="0.9882352941176471" d="M 64.5 75 L 65 77.5 L 64 77.5 L 64.5 75 Z " /><path fill="rgb(46,139,199)" stroke="rgb(46,139,199)" stroke-width="1" opacity="0.9882352941176471" d="M 379.5 80 L 387.5 89 L 379.5 80 Z " /><path fill="rgb(46,139,199)" stroke="rgb(46,139,199)" stroke-width="1" opacity="0.9882352941176471" d="M 85.5 81 L 86 430.5 L 85 430.5 L 85.5 81 Z " /><path fill="rgb(46,139,199)" stroke="rgb(46,139,199)" stroke-width="1" opacity="0.9882352941176471" d="M 389.5 91 L 397.5 100 L 389.5 91 Z " /><path fill="rgb(46,139,199)" stroke="rgb(46,139,199)" stroke-width="1" opacity="0.9882352941176471" d="M 399.5 102 L 408.5 112 L 399.5 102 Z " /><path fill="rgb(46,139,199)" stroke="rgb(46,139,199)" stroke-width="1" opacity="0.9882352941176471" d="M 409.5 113 L 418.5 123 L 409.5 113 Z " /><path fill="rgb(46,139,199)" stroke="rgb(46,139,199)" stroke-width="1" opacity="0.9882352941176471" d="M 419.5 124 L 428.5 134 L 419.5 124 Z " /><path fill="rgb(46,139,199)" stroke="rgb(46,139,199)" stroke-width="1" opacity="0.9882352941176471" d="M 429.5 135 L 439 145.5 L 436 143.5 L 429.5 135 Z " /><path fill="rgb(46,139,199)" stroke="rgb(46,139,199)" stroke-width="1" opacity="0.9882352941176471" d="M 439.5 147 L 440.5 149 L 439.5 147 Z " /><path fill="rgb(46,139,199)" stroke="rgb(46,139,199)" stroke-width="1" opacity="0.9882352941176471" d="M 323.5 164 L 324.5 166 L 323.5 164 Z " /><path fill="rgb(46,139,199)" stroke="rgb(46,139,199)" stroke-width="1" opacity="0.9882352941176471" d="M 447.5 166 L 448 169.5 L 447 169.5 L 447.5 166 Z " /><path fill="rgb(46,139,199)" stroke="rgb(46,139,199)" stroke-width="1" opacity="0.9882352941176471" d="M 325.5 167 L 326.5 169 L 325.5 167 Z " /><path fill="rgb(46,139,199)" stroke="rgb(46,139,199)" stroke-width="1" opacity="0.9882352941176471" d="M 426.5 172 L 427 430.5 L 426 430.5 L 426.5 172 Z " /><path fill="rgb(46,139,199)" stroke="rgb(46,139,199)" stroke-width="1" opacity="0.9882352941176471" d="M 349.5 181 L 396 181.5 L 349.5 182 L 349.5 181 Z " /><path fill="rgb(46,139,199)" stroke="rgb(46,139,199)" stroke-width="1" opacity="0.9882352941176471" d="M 149.5 234 L 182 234.5 L 149.5 235 L 149.5 234 Z " /><path fill="rgb(46,139,199)" stroke="rgb(46,139,199)" stroke-width="1" opacity="0.9882352941176471" d="M 134.5 240 L 133.5 242 L 134.5 240 Z " /><path fill="rgb(46,139,199)" stroke="rgb(46,139,199)" stroke-width="1" opacity="0.9882352941176471" d="M 133.5 302 L 134.5 304 L 133.5 302 Z " /><path fill="rgb(46,139,199)" stroke="rgb(46,139,199)" stroke-width="1" opacity="0.9882352941176471" d="M 149.5 309 L 182 309.5 L 149.5 310 L 149.5 309 Z " /><path fill="rgb(46,139,199)" stroke="rgb(46,139,199)" stroke-width="1" opacity="0.9882352941176471" d="M 64.5 434 L 65 436.5 L 64 436.5 L 64.5 434 Z " /><path fill="rgb(46,139,199)" stroke="rgb(46,139,199)" stroke-width="1" opacity="0.9882352941176471" d="M 447.5 434 L 448 436.5 L 447 436.5 L 447.5 434 Z " /><path fill="rgb(46,139,199)" stroke="rgb(46,139,199)" stroke-width="1" opacity="0.9882352941176471" d="M 89.5 442 L 90.5 444 L 89.5 442 Z " /><path fill="rgb(46,139,199)" stroke="rgb(46,139,199)" stroke-width="1" opacity="0.9882352941176471" d="M 91.5 445 L 92.5 447 L 91.5 445 Z " /><path fill="rgb(46,139,199)" stroke="rgb(46,139,199)" stroke-width="1" opacity="0.9882352941176471" d="M 420.5 445 L 419.5 447 L 420.5 445 Z " /><path fill="rgb(46,139,199)" stroke="rgb(46,139,199)" stroke-width="1" opacity="0.9882352941176471" d="M 97.5 451 L 98.5 453 L 97.5 451 Z " /><path fill="rgb(46,139,199)" stroke="rgb(46,139,199)" stroke-width="1" opacity="0.9882352941176471" d="M 414.5 451 L 413.5 453 L 414.5 451 Z " /><path fill="rgb(46,139,199)" stroke="rgb(46,139,199)" stroke-width="1" opacity="0.9882352941176471" d="M 411.5 453 L 410.5 455 L 411.5 453 Z " /><path fill="rgb(46,139,199)" stroke="rgb(46,139,199)" stroke-width="1" opacity="0.9882352941176471" d="M 71.5 454 L 75 458.5 L 72 456.5 L 71.5 454 Z " /><path fill="rgb(46,139,199)" stroke="rgb(46,139,199)" stroke-width="1" opacity="0.9882352941176471" d="M 440.5 454 L 440 455.5 L 437.5 459 L 439 456.5 L 440.5 454 Z " /><path fill="rgb(46,139,199)" stroke="rgb(46,139,199)" stroke-width="1" opacity="0.9882352941176471" d="M 113.5 458 L 399 458.5 L 113.5 459 L 113.5 458 Z " /><path fill="rgb(46,139,199)" stroke="rgb(46,139,199)" stroke-width="1" opacity="0.9882352941176471" d="M 75.5 460 L 83.5 469 L 75.5 460 Z " /><path fill="rgb(46,139,199)" stroke="rgb(46,139,199)" stroke-width="1" opacity="0.9882352941176471" d="M 436.5 460 L 428.5 469 L 436.5 460 Z " /><path fill="rgb(46,139,199)" stroke="rgb(46,139,199)" stroke-width="1" opacity="0.9882352941176471" d="M 85.5 469 L 90 472.5 L 88.5 472 L 85.5 469 Z " /><path fill="rgb(46,139,199)" stroke="rgb(46,139,199)" stroke-width="1" opacity="0.9882352941176471" d="M 426.5 469 L 424.5 472 L 426.5 469 Z " /><path fill="rgb(46,139,199)" stroke="rgb(46,139,199)" stroke-width="1" opacity="0.9882352941176471" d="M 107.5 479 L 110 479.5 L 107.5 480 L 107.5 479 Z " /><path fill="rgb(46,139,199)" stroke="rgb(46,139,199)" stroke-width="1" opacity="0.9882352941176471" d="M 402.5 479 L 405 479.5 L 402.5 480 L 402.5 479 Z " /><path fill="rgb(35,35,35)" stroke="rgb(35,35,35)" stroke-width="1" opacity="0.996078431372549" d="M 110.5 32 L 318.5 32 L 335.5 37 Q 349.4 45 359 57.5 L 436 142.5 Q 443.7 151.3 447 164.5 Q 445.8 169.2 448 170.5 L 448 433.5 Q 443.5 457 427.5 469 L 413.5 477 L 401.5 480 L 110.5 480 Q 87 475.5 75 459.5 L 67 445.5 L 64 433.5 L 64 78.5 Q 68.5 55 84.5 43 Q 94.8 34.8 110.5 32 Z M 114 53 L 106 55 L 99 59 Q 88 66 85 82 L 85 431 L 87 439 L 91 446 Q 98 456 114 459 L 399 459 L 407 457 L 414 453 Q 424 446 427 431 L 427 173 Q 425 163 420 157 L 352 82 L 341 72 L 341 151 L 343 156 L 350 160 L 398 160 L 403 163 L 405 168 Q 406 175 403 178 L 398 181 L 346 181 L 333 175 Q 322 168 320 154 L 320 54 L 316 53 L 114 53 Z " /><path fill="rgb(0,0,0)" stroke="rgb(0,0,0)" stroke-width="1" opacity="0" d="M 0 0 L 512 0 L 512 512 L 0 512 L 0 0 Z M 108 32 Q 93 35 84 43 Q 69 54 64 76 L 64 437 L 66 445 L 75 461 Q 86 476 108 480 L 405 480 Q 419 477 429 469 Q 443 458 448 437 L 448 167 Q 445 152 437 143 L 359 57 L 342 40 L 330 34 L 321 32 L 108 32 Z " /><path fill="rgb(102,179,254)" stroke="rgb(102,179,254)" stroke-width="1" opacity="0.996078431372549" d="M 100.5 58 L 99.5 60 L 100.5 58 Z " /><path fill="rgb(102,179,254)" stroke="rgb(102,179,254)" stroke-width="1" opacity="0.996078431372549" d="M 96.5 61 L 93.5 65 L 96.5 61 Z " /><path fill="rgb(102,179,254)" stroke="rgb(102,179,254)" stroke-width="1" opacity="0.996078431372549" d="M 189.5 138 L 192 138.5 L 189.5 139 L 189.5 138 Z " /><path fill="rgb(102,179,254)" stroke="rgb(102,179,254)" stroke-width="1" opacity="0.996078431372549" d="M 186.5 139 L 188 139.5 L 181.5 145 L 186.5 139 Z " /><path fill="rgb(102,179,254)" stroke="rgb(102,179,254)" stroke-width="1" opacity="0.996078431372549" d="M 198.5 140 L 201.5 144 L 198.5 140 Z " /><path fill="rgb(102,179,254)" stroke="rgb(102,179,254)" stroke-width="1" opacity="0.996078431372549" d="M 180.5 146 L 178.5 149 L 180.5 146 Z " /><path fill="rgb(102,179,254)" stroke="rgb(102,179,254)" stroke-width="1" opacity="0.996078431372549" d="M 177.5 150 L 175.5 153 L 177.5 150 Z " /><path fill="rgb(102,179,254)" stroke="rgb(102,179,254)" stroke-width="1" opacity="0.996078431372549" d="M 174.5 154 L 172.5 157 L 174.5 154 Z " /><path fill="rgb(102,179,254)" stroke="rgb(102,179,254)" stroke-width="1" opacity="0.996078431372549" d="M 200.5 156 L 199.5 158 L 200.5 156 Z " /><path fill="rgb(102,179,254)" stroke="rgb(102,179,254)" stroke-width="1" opacity="0.996078431372549" d="M 171.5 158 L 169.5 161 L 171.5 158 Z " /><path fill="rgb(102,179,254)" stroke="rgb(102,179,254)" stroke-width="1" opacity="0.996078431372549" d="M 198.5 159 L 196.5 162 L 198.5 159 Z " /><path fill="rgb(102,179,254)" stroke="rgb(102,179,254)" stroke-width="1" opacity="0.996078431372549" d="M 132.5 161 L 129.5 165 L 132.5 161 Z " /><path fill="rgb(102,179,254)" stroke="rgb(102,179,254)" stroke-width="1" opacity="0.996078431372549" d="M 168.5 162 L 166.5 165 L 168.5 162 Z " /><path fill="rgb(102,179,254)" stroke="rgb(102,179,254)" stroke-width="1" opacity="0.996078431372549" d="M 147.5 163 L 160 174.5 L 158.5 175 L 147.5 163 Z " /><path fill="rgb(102,179,254)" stroke="rgb(102,179,254)" stroke-width="1" opacity="0.996078431372549" d="M 195.5 163 L 193.5 166 L 195.5 163 Z " /><path fill="rgb(102,179,254)" stroke="rgb(102,179,254)" stroke-width="1" opacity="0.996078431372549" d="M 165.5 166 L 163.5 169 L 165.5 166 Z " /><path fill="rgb(102,179,254)" stroke="rgb(102,179,254)" stroke-width="1" opacity="0.996078431372549" d="M 192.5 167 L 190.5 170 L 192.5 167 Z " /><path fill="rgb(102,179,254)" stroke="rgb(102,179,254)" stroke-width="1" opacity="0.996078431372549" d="M 326.5 169 L 331.5 175 L 326.5 169 Z " /><path fill="rgb(102,179,254)" stroke="rgb(102,179,254)" stroke-width="1" opacity="0.996078431372549" d="M 162.5 170 L 160.5 173 L 162.5 170 Z " /><path fill="rgb(102,179,254)" stroke="rgb(102,179,254)" stroke-width="1" opacity="0.996078431372549" d="M 189.5 171 L 187.5 174 L 189.5 171 Z " /><path fill="rgb(102,179,254)" stroke="rgb(102,179,254)" stroke-width="1" opacity="0.996078431372549" d="M 186.5 175 L 184.5 178 L 186.5 175 Z " /><path fill="rgb(102,179,254)" stroke="rgb(102,179,254)" stroke-width="1" opacity="0.996078431372549" d="M 403.5 177 L 401.5 180 L 403.5 177 Z " /><path fill="rgb(102,179,254)" stroke="rgb(102,179,254)" stroke-width="1" opacity="0.996078431372549" d="M 131.5 179 L 151.5 200 L 131.5 179 Z " /><path fill="rgb(102,179,254)" stroke="rgb(102,179,254)" stroke-width="1" opacity="0.996078431372549" d="M 183.5 179 L 181.5 182 L 183.5 179 Z " /><path fill="rgb(102,179,254)" stroke="rgb(102,179,254)" stroke-width="1" opacity="0.996078431372549" d="M 180.5 183 L 178.5 186 L 180.5 183 Z " /><path fill="rgb(102,179,254)" stroke="rgb(102,179,254)" stroke-width="1" opacity="0.996078431372549" d="M 177.5 187 L 175.5 190 L 177.5 187 Z " /><path fill="rgb(102,179,254)" stroke="rgb(102,179,254)" stroke-width="1" opacity="0.996078431372549" d="M 174.5 191 L 172.5 194 L 174.5 191 Z " /><path fill="rgb(102,179,254)" stroke="rgb(102,179,254)" stroke-width="1" opacity="0.996078431372549" d="M 171.5 195 L 169.5 198 L 171.5 195 Z " /><path fill="rgb(102,179,254)" stroke="rgb(102,179,254)" stroke-width="1" opacity="0.996078431372549" d="M 145.5 234 L 149 234.5 L 145.5 235 L 145.5 234 Z " /><path fill="rgb(102,179,254)" stroke="rgb(102,179,254)" stroke-width="1" opacity="0.996078431372549" d="M 182.5 234 L 185 234.5 L 182.5 235 L 182.5 234 Z " /><path fill="rgb(102,179,254)" stroke="rgb(102,179,254)" stroke-width="1" opacity="0.996078431372549" d="M 137.5 237 L 135.5 240 L 137.5 237 Z " /><path fill="rgb(102,179,254)" stroke="rgb(102,179,254)" stroke-width="1" opacity="0.996078431372549" d="M 194.5 238 L 198.5 243 L 194.5 238 Z " /><path fill="rgb(102,179,254)" stroke="rgb(102,179,254)" stroke-width="1" opacity="0.996078431372549" d="M 132.5 242 L 131.5 244 L 132.5 242 Z " /><path fill="rgb(102,179,254)" stroke="rgb(102,179,254)" stroke-width="1" opacity="0.996078431372549" d="M 131.5 300 L 132.5 302 L 131.5 300 Z " /><path fill="rgb(102,179,254)" stroke="rgb(102,179,254)" stroke-width="1" opacity="0.996078431372549" d="M 198.5 301 L 194.5 306 L 198.5 301 Z " /><path fill="rgb(102,179,254)" stroke="rgb(102,179,254)" stroke-width="1" opacity="0.996078431372549" d="M 135.5 304 L 137.5 307 L 135.5 304 Z " /><path fill="rgb(102,179,254)" stroke="rgb(102,179,254)" stroke-width="1" opacity="0.996078431372549" d="M 145.5 309 L 149 309.5 L 145.5 310 L 145.5 309 Z " /><path fill="rgb(102,179,254)" stroke="rgb(102,179,254)" stroke-width="1" opacity="0.996078431372549" d="M 182.5 309 L 185 309.5 L 182.5 310 L 182.5 309 Z " /><path fill="rgb(102,179,254)" stroke="rgb(102,179,254)" stroke-width="1" opacity="0.996078431372549" d="M 185.5 353 L 182.5 357 L 185.5 353 Z " /><path fill="rgb(102,179,254)" stroke="rgb(102,179,254)" stroke-width="1" opacity="0.996078431372549" d="M 198.5 353 L 200.5 356 L 198.5 353 Z " /><path fill="rgb(102,179,254)" stroke="rgb(102,179,254)" stroke-width="1" opacity="0.996078431372549" d="M 181.5 358 L 179.5 361 L 181.5 358 Z " /><path fill="rgb(102,179,254)" stroke="rgb(102,179,254)" stroke-width="1" opacity="0.996078431372549" d="M 178.5 362 L 176.5 365 L 178.5 362 Z " /><path fill="rgb(102,179,254)" stroke="rgb(102,179,254)" stroke-width="1" opacity="0.996078431372549" d="M 175.5 366 L 173.5 369 L 175.5 366 Z " /><path fill="rgb(102,179,254)" stroke="rgb(102,179,254)" stroke-width="1" opacity="0.996078431372549" d="M 201.5 368 L 200.5 370 L 201.5 368 Z " /><path fill="rgb(102,179,254)" stroke="rgb(102,179,254)" stroke-width="1" opacity="0.996078431372549" d="M 172.5 370 L 170.5 373 L 172.5 370 Z " /><path fill="rgb(102,179,254)" stroke="rgb(102,179,254)" stroke-width="1" opacity="0.996078431372549" d="M 199.5 371 L 197.5 374 L 199.5 371 Z " /><path fill="rgb(102,179,254)" stroke="rgb(102,179,254)" stroke-width="1" opacity="0.996078431372549" d="M 144.5 374 L 146.5 377 L 144.5 374 Z " /><path fill="rgb(102,179,254)" stroke="rgb(102,179,254)" stroke-width="1" opacity="0.996078431372549" d="M 169.5 374 L 167.5 377 L 169.5 374 Z " /><path fill="rgb(102,179,254)" stroke="rgb(102,179,254)" stroke-width="1" opacity="0.996078431372549" d="M 196.5 375 L 194.5 378 L 196.5 375 Z " /><path fill="rgb(102,179,254)" stroke="rgb(102,179,254)" stroke-width="1" opacity="0.996078431372549" d="M 166.5 378 L 164.5 381 L 166.5 378 Z " /><path fill="rgb(102,179,254)" stroke="rgb(102,179,254)" stroke-width="1" opacity="0.996078431372549" d="M 193.5 379 L 191.5 382 L 193.5 379 Z " /><path fill="rgb(102,179,254)" stroke="rgb(102,179,254)" stroke-width="1" opacity="0.996078431372549" d="M 163.5 382 L 161.5 385 L 163.5 382 Z " /><path fill="rgb(102,179,254)" stroke="rgb(102,179,254)" stroke-width="1" opacity="0.996078431372549" d="M 190.5 383 L 188.5 386 L 190.5 383 Z " /><path fill="rgb(102,179,254)" stroke="rgb(102,179,254)" stroke-width="1" opacity="0.996078431372549" d="M 160.5 386 L 159.5 388 L 160.5 386 Z " /><path fill="rgb(102,179,254)" stroke="rgb(102,179,254)" stroke-width="1" opacity="0.996078431372549" d="M 187.5 387 L 185.5 390 L 187.5 387 Z " /><path fill="rgb(102,179,254)" stroke="rgb(102,179,254)" stroke-width="1" opacity="0.996078431372549" d="M 129.5 390 L 153.5 415 L 129.5 390 Z " /><path fill="rgb(102,179,254)" stroke="rgb(102,179,254)" stroke-width="1" opacity="0.996078431372549" d="M 184.5 391 L 182.5 394 L 184.5 391 Z " /><path fill="rgb(102,179,254)" stroke="rgb(102,179,254)" stroke-width="1" opacity="0.996078431372549" d="M 181.5 395 L 179.5 398 L 181.5 395 Z " /><path fill="rgb(102,179,254)" stroke="rgb(102,179,254)" stroke-width="1" opacity="0.996078431372549" d="M 178.5 399 L 176.5 402 L 178.5 399 Z " /><path fill="rgb(102,179,254)" stroke="rgb(102,179,254)" stroke-width="1" opacity="0.996078431372549" d="M 175.5 403 L 173.5 406 L 175.5 403 Z " /><path fill="rgb(102,179,254)" stroke="rgb(102,179,254)" stroke-width="1" opacity="0.996078431372549" d="M 172.5 407 L 170.5 410 L 172.5 407 Z " /><path fill="rgb(102,179,254)" stroke="rgb(102,179,254)" stroke-width="1" opacity="0.996078431372549" d="M 169.5 411 L 166.5 415 L 169.5 411 Z " /><path fill="rgb(102,179,254)" stroke="rgb(102,179,254)" stroke-width="1" opacity="0.996078431372549" d="M 421.5 443 L 420.5 445 L 421.5 443 Z " /><path fill="rgb(102,179,254)" stroke="rgb(102,179,254)" stroke-width="1" opacity="0.996078431372549" d="M 93.5 447 L 96.5 451 L 93.5 447 Z " /><path fill="rgb(102,179,254)" stroke="rgb(102,179,254)" stroke-width="1" opacity="0.996078431372549" d="M 418.5 447 L 415.5 451 L 418.5 447 Z " /><path fill="rgb(102,179,254)" stroke="rgb(102,179,254)" stroke-width="1" opacity="0.996078431372549" d="M 99.5 452 L 100.5 454 L 99.5 452 Z " /><path fill="rgb(102,179,255)" stroke="rgb(102,179,255)" stroke-width="1" opacity="1" d="M 111.5 54 L 317.5 54 L 320 55 L 320 157.5 Q 323.4 168.6 331.5 175 Q 337.6 180.4 347.5 182 L 397.5 182 L 404 177.5 L 406 171 L 425.5 171 L 426 171.5 L 426 432.5 Q 422.7 445.2 413.5 452 L 400.5 458 L 111.5 458 Q 98.8 454.7 92 445.5 L 86 432.5 L 86 79.5 Q 89.3 66.8 98.5 60 L 111.5 54 Z M 190 138 L 187 139 L 181 145 L 160 174 L 143 160 Q 136 159 133 161 L 128 167 Q 127 176 131 180 L 152 200 L 157 203 L 166 202 L 172 196 L 203 153 L 202 144 L 195 138 L 190 138 Z M 232 139 L 230 140 L 224 148 Q 223 153 226 156 L 233 160 L 280 160 L 284 158 L 288 152 L 287 145 L 281 139 L 232 139 Z M 235 181 L 229 183 L 224 190 Q 223 196 226 199 L 229 201 L 235 203 L 310 203 L 316 201 L 320 195 Q 321 188 318 186 L 316 183 L 310 181 L 235 181 Z M 146 234 L 138 237 Q 131 241 128 250 L 128 295 L 131 301 Q 136 308 146 310 L 185 310 L 195 306 Q 201 302 203 294 L 203 251 L 199 243 Q 194 236 185 234 L 146 234 Z M 235 245 L 229 247 L 224 254 Q 223 260 226 263 L 229 265 L 235 267 L 299 267 L 305 265 L 309 260 L 308 251 Q 305 246 299 245 L 235 245 Z M 233 288 L 229 290 L 224 297 L 225 304 L 232 309 L 356 309 L 358 308 Q 362 305 363 299 L 361 293 L 355 288 L 233 288 Z M 188 352 L 186 353 L 159 388 L 145 374 L 142 373 L 136 373 L 130 376 L 128 381 Q 127 387 129 391 L 156 416 Q 163 418 167 415 L 203 367 Q 204 359 201 356 Q 198 350 188 352 Z M 233 352 L 229 354 L 224 361 L 225 368 L 232 373 L 302 373 L 306 371 L 309 366 L 308 358 L 301 352 L 233 352 Z M 232 395 L 230 396 L 224 404 Q 223 409 226 412 L 233 416 L 355 416 L 359 414 L 361 412 L 363 406 L 361 400 L 356 395 L 232 395 Z " /><path fill="rgb(247,197,188)" stroke="rgb(247,197,188)" stroke-width="1" opacity="1" d="M 192.5 138 L 196.5 139 L 202 144.5 L 203 151.5 L 166.5 201 Q 163.8 203.8 157.5 203 L 153.5 201 L 130 177.5 Q 127 174.5 128 167.5 L 133.5 161 L 141.5 160 L 160 175 L 181 145.5 L 186.5 140 L 192.5 138 Z " /><path fill="rgb(247,197,188)" stroke="rgb(247,197,188)" stroke-width="1" opacity="1" d="M 231.5 139 L 280.5 139 L 287 144.5 L 288 151.5 L 283.5 158 L 279.5 160 L 232.5 160 L 226 155.5 Q 223.3 153.2 224 147.5 L 229.5 140 L 231.5 139 Z " /><path fill="rgb(247,197,188)" stroke="rgb(247,197,188)" stroke-width="1" opacity="1" d="M 234.5 181 L 309.5 181 L 315.5 183 L 318 185.5 Q 320.8 188.2 320 194.5 L 315.5 201 L 309.5 203 L 234.5 203 L 228.5 201 L 226 198.5 Q 223.2 195.8 224 189.5 L 228.5 183 L 234.5 181 Z " /><path fill="rgb(247,197,188)" stroke="rgb(247,197,188)" stroke-width="1" opacity="1" d="M 144.5 235 L 186.5 235 Q 194.8 237.2 199 243.5 L 203 254.5 L 203 289.5 L 199 300.5 L 194.5 305 L 186.5 309 L 144.5 309 Q 135.4 306.5 131 299.5 L 128 291.5 L 128 252.5 Q 130 242.5 137.5 238 L 144.5 235 Z " /><path fill="rgb(247,197,188)" stroke="rgb(247,197,188)" stroke-width="1" opacity="1" d="M 234.5 245 L 298.5 245 Q 305.1 245.9 308 250.5 L 309 259.5 L 304.5 265 L 298.5 267 L 234.5 267 L 228.5 265 L 226 262.5 Q 223.2 259.8 224 253.5 L 228.5 247 L 234.5 245 Z " /><path fill="rgb(247,197,188)" stroke="rgb(247,197,188)" stroke-width="1" opacity="1" d="M 232.5 288 L 354.5 288 L 361 292.5 L 363 298.5 Q 362.1 305.1 357.5 308 L 355.5 309 L 231.5 309 L 225 303.5 L 224 296.5 L 228.5 290 L 232.5 288 Z " /><path fill="rgb(247,197,188)" stroke="rgb(247,197,188)" stroke-width="1" opacity="1" d="M 188.5 352 Q 199.6 350.4 202 357.5 L 203 364.5 L 200 370.5 L 165.5 415 L 156.5 416 L 129 389.5 L 128 381.5 L 132.5 375 L 140.5 373 L 148 377 L 148 379 L 150 379 Q 148.9 381.7 151.5 381 L 154 385 L 156 385 Q 154.9 387.7 157.5 387 L 159.5 388 L 186.5 353 L 188.5 352 Z " /><path fill="rgb(247,197,188)" stroke="rgb(247,197,188)" stroke-width="1" opacity="1" d="M 232.5 352 L 300.5 352 L 308 357.5 L 309 365.5 L 305.5 371 L 301.5 373 L 231.5 373 L 225 367.5 L 224 360.5 L 228.5 354 L 232.5 352 Z " /><path fill="rgb(247,197,188)" stroke="rgb(247,197,188)" stroke-width="1" opacity="1" d="M 231.5 395 L 355.5 395 L 361 399.5 L 363 405.5 L 361 411.5 L 358.5 414 L 354.5 416 L 232.5 416 L 226 411.5 Q 223.3 409.2 224 403.5 L 229.5 396 L 231.5 395 Z " /></svg>